<svg id="Layer_1" data-name="Layer 1" xmlns="http://www.w3.org/2000/svg" viewBox="0 0 300.96 313.17"><defs><style>.cls-1{fill:none;}.cls-2,.cls-5,.cls-6{fill:#fff;}.cls-3,.cls-4{fill:#062034;}.cls-4{fill-rule:evenodd;}.cls-5{font-size:77.35px;}.cls-5,.cls-6{font-family:Impact;}.cls-6{font-size:22.36px;}</style></defs><path class="cls-1" d="M32.1,399a167.92,167.92,0,0,0-12.75-64.16A167.86,167.86,0,0,0-17,280.52a168,168,0,0,0-54.35-36.34,167.77,167.77,0,0,0-64.16-12.75,167.7,167.7,0,0,0-64.16,12.75A167.86,167.86,0,0,0-254,280.52a167.86,167.86,0,0,0-36.34,54.35A167.7,167.7,0,0,0-303.1,399a167.77,167.77,0,0,0,12.75,64.16A168,168,0,0,0-254,517.54a167.86,167.86,0,0,0,54.35,36.34,167.88,167.88,0,0,0,64.16,12.75,167.87,167.87,0,0,0,64.15-12.75A167.9,167.9,0,0,0-17,517.54a168,168,0,0,0,36.34-54.35A167.92,167.92,0,0,0,32.1,399h-89a78.81,78.81,0,0,1-6,30.08,79,79,0,0,1-17.06,25.53,79.22,79.22,0,0,1-25.53,17.06,78.62,78.62,0,0,1-30.08,6,78.67,78.67,0,0,1-30.09-6,79.07,79.07,0,0,1-25.52-17.06,78.88,78.88,0,0,1-17.07-25.53,78.61,78.61,0,0,1-6-30.08,78.61,78.61,0,0,1,6-30.08,78.88,78.88,0,0,1,17.07-25.53,79.1,79.1,0,0,1,25.52-17.07,78.81,78.81,0,0,1,30.09-6,78.8,78.8,0,0,1,30.08,6A79.1,79.1,0,0,1-79.9,343.42,78.88,78.88,0,0,1-62.83,369a78.81,78.81,0,0,1,6,30.08Z"/><rect class="cls-2" x="22.22" y="86.95" width="256.51" height="139.28"/><path class="cls-3" d="M278.74,223.87H32.64c-3.3,0-6.69-.25-10,0h-.44l.52,2.35V104.15c0-5.64.2-11.33,0-17V87l-.52,2.35h246.1c3.3,0,6.69.25,10,0h.44L278.22,87V209c0,5.66,0,11.31,0,17v.23c0,.33,0,2.36.52,2.36s.51-2.14.51-2.36V104.15c0-5.66.05-11.31,0-17V87c0-.3,0-2.36-.51-2.36H32.64c-3.3,0-6.68-.21-10,0h-.44c-.54,0-.51,2.15-.51,2.36V209c0,5.66-.05,11.31,0,17v.23c0,.3,0,2.36.51,2.36h246.1c3.3,0,6.68.21,10,0,.14,0,.29,0,.44,0C279.49,228.58,279.51,223.87,278.74,223.87Z"/><rect class="cls-3" x="44.27" y="112.39" width="215.73" height="88.39"/><polygon class="cls-1" points="24.71 112.39 24.71 220.33 279.55 220.33 279.55 92.84 44.27 92.84 44.27 131.94 240.45 131.94 240.45 181.23 63.82 181.23 63.82 112.39 24.71 112.39"/><path class="cls-4" d="M53.27,114.72a1.92,1.92,0,0,0,1.64.11C54.36,114.83,53.84,114.45,53.27,114.72Z"/><path class="cls-4" d="M54.82,113.94c.56-.07,1.06.37,1.64.12C55.92,114,55.42,113.56,54.82,113.94Z"/><path class="cls-4" d="M59.06,115.48c.57.21.61-.06,1.48-.12a2.41,2.41,0,0,0-.89-.27C59.29,115.22,59.46,115.36,59.06,115.48Z"/><path class="cls-4" d="M75.15,122.76l.69.33c.4-.28.75-.08,1.14-.3A1.94,1.94,0,0,0,75.15,122.76Z"/><path class="cls-4" d="M57.92,114.09c-.29.23.91.52,1.26.27,0-.31-.43-.11-.87-.42C58.25,114.06,58.17,114.18,57.92,114.09Z"/><path class="cls-4" d="M77.69,123c.71,0,.7.29,1,.51.32-.27.18-.54-.28-.81Z"/><path class="cls-4" d="M68.69,116.41c-.26.29,1,.43,1.46,0C69.7,116.07,69.14,116.72,68.69,116.41Z"/><path class="cls-4" d="M84.58,123.76c.28,0,.8-.08.54.1.35.19.76-.24,1.14-.3a3,3,0,0,0,1.58.59c0-.65,1.3-.57,2.29-.75a2.94,2.94,0,0,1-1.62-.28c0,.45-.34.26-1.15.46a.51.51,0,0,0-.34-.33,1.94,1.94,0,0,1-1.46,0C85.06,123.4,84.61,123.58,84.58,123.76Z"/><path class="cls-4" d="M71,116.71l.7.33a.44.44,0,0,1,.57-.23C72.62,116.59,71.41,116.37,71,116.71Z"/><path class="cls-4" d="M73.49,114.5a2.88,2.88,0,0,0,1.67-.2C74.6,114.23,73.55,114.1,73.49,114.5Z"/><path class="cls-4" d="M99.77,125.86c.51.26,1.45.2,1.49-.13A4.23,4.23,0,0,0,99.77,125.86Z"/><path class="cls-4" d="M79,114.78c.6,0,1.17.47,1.83,0A3.54,3.54,0,0,0,79,114.78Z"/><path class="cls-4" d="M97.62,120.41c.78.16.72-.2,1.7-.36a2,2,0,0,1-.72-.18C98.27,120.4,97.39,120,97.62,120.41Z"/><path class="cls-4" d="M85.32,113.79c.25-.26-1-.29-1.4-.68C83.34,113.46,84.8,113.63,85.32,113.79Z"/><path class="cls-4" d="M91.67,114.49a5.08,5.08,0,0,0,1.85-.12,19.48,19.48,0,0,1-2.16-.37C90.71,114.14,92.31,114.34,91.67,114.49Z"/><path class="cls-4" d="M111.56,123.93c-.28.5,1.07.11,1.44.2C113.27,123.73,111.93,124,111.56,123.93Z"/><path class="cls-4" d="M113,122.27c-.39-.31-.87.16-1.25-.27-.36.21-.38.43-.07.65C112.25,122.26,113,122.67,113,122.27Z"/><path class="cls-4" d="M123.13,127.16a3,3,0,0,0,2,.12A8.43,8.43,0,0,0,123.13,127.16Z"/><path class="cls-4" d="M87.59,109.81c.34.3.73.11,1.07.34.68-.2.24-.42-.3-.65Z"/><path class="cls-4" d="M92.32,111.92a2.73,2.73,0,0,0,1.43.35C94,112,92.74,111.56,92.32,111.92Z"/><path class="cls-4" d="M91.42,110.13c.11.09.23.05.36,0,1.42.44,2.93.07,4.36.41.84-.25.35-.53.82-.78-.8-.26-.68.26-1.31.21-.66-.22-.17-.4-.87-.42-.07.44-1.11.3-1.71.53-.39-.32-.83-.23-1.23-.43C91,109.8,92.25,110,91.42,110.13Z"/><path class="cls-4" d="M121.75,123.1c-.38-.1.73-.28.94-.22.43-.41-.71.05-.89-.26-.76.17-.32.37-.61.55a10.32,10.32,0,0,0,1.43.36C123.14,123.28,122.23,123.11,121.75,123.1Z"/><path class="cls-4" d="M79.39,102.63c.59.19,1.16.57,1.82.19A4,4,0,0,0,79.39,102.63Z"/><path class="cls-4" d="M79.27,102.06c-.31.27.92.31,1.27.11C80.17,101.71,79.69,102.19,79.27,102.06Z"/><path class="cls-4" d="M81.77,102.75c.5-.17.32-.36.61-.55-.3-.08-.61,0-.91-.1C81.21,102.31,81.42,102.53,81.77,102.75Z"/><path class="cls-4" d="M124,123c-.1.5,1.44.18,2,.44C126.48,122.91,124.6,123,124,123Z"/><path class="cls-4" d="M75.57,97.39A5.19,5.19,0,0,0,78,96.87,8.41,8.41,0,0,0,75.57,97.39Z"/><path class="cls-4" d="M130.87,123.62c0-.26-.87-.62-1.43-.35C129.41,123.51,130.29,124,130.87,123.62Z"/><path class="cls-4" d="M92.68,105.32c.57.33,2.67.11,1.69-.36C93.78,105.38,93.25,105.16,92.68,105.32Z"/><path class="cls-4" d="M104.93,110.74c.09.44,1.78.47,2.57.06-.37-.12-.18-.22,0-.33C106.72,110.08,105.76,111,104.93,110.74Z"/><path class="cls-4" d="M85.17,100.17a2.72,2.72,0,0,0,2.18.21C86.61,100.45,85.94,99.89,85.17,100.17Z"/><path class="cls-4" d="M134.32,123.94c.28,0,.55,0,.35.16,1.2-.34,2.31.19,3.51-.16C136.46,124,135.71,123,134.32,123.94Z"/><path class="cls-4" d="M100.71,105.82c.38.36.86-.11,1.3-.22a1.8,1.8,0,0,1-.71-.17C101.26,105.56,101.05,105.69,100.71,105.82Z"/><path class="cls-4" d="M138.54,123.94c-.46.29.56.11.7.34-.3-.5.64,0,1.33-.37-.38-.44-.9.32-1.27-.11A1,1,0,0,1,138.54,123.94Z"/><path class="cls-4" d="M140.73,124.15c1.16.16,1.35.79,2.33.45-1.1-.29.37-.53-.64-.81C142.33,124.35,141.33,123.87,140.73,124.15Z"/><path class="cls-4" d="M101.64,102.37c.84.11,2.07-.11,1.34-.53C102.26,102.08,102,102,101.64,102.37Z"/><path class="cls-4" d="M147,124.29c.69.38,1.46.08,2.18.2.36.2-.11.38-.61.55,1.26.25,1.27-.56,3-.42-.34-.35-.38-.19-1-.5-.84.29.27.1.5.41C149.62,124.54,148.33,124,147,124.29Z"/><path class="cls-4" d="M129.5,112.8a2.6,2.6,0,0,0,2.06-.36C130.76,112.38,129.85,112.36,129.5,112.8Z"/><path class="cls-4" d="M118.22,106.83c.67,0,.2.12.7.34.34-.18.16-.37.24-.56C118.87,106.52,118.54,106.73,118.22,106.83Z"/><path class="cls-4" d="M135,108.16a4.63,4.63,0,0,0,2.4-.19C136.6,108.1,135.19,107.75,135,108.16Z"/><path class="cls-4" d="M124.46,98.51a6.31,6.31,0,0,0,1.26.27c.65-.15-1-.35-.31-.49C125.11,98.2,124.79,98.41,124.46,98.51Z"/><path class="cls-4" d="M115.42,94a3.37,3.37,0,0,0,2.24-.28C116.94,93.76,115.59,93.62,115.42,94Z"/><path class="cls-4" d="M153.75,111l.7.33c.06-.12.13-.24.38-.15C155.19,110.92,154.05,110.69,153.75,111Z"/><path class="cls-4" d="M129.06,96.83c.76.28,1.59,0,2.33.46.35-.18-.08-.38-.12-.57.53-.14,1.29.17,1.31-.21-.41-.13-.88.23-1.27-.11C130.92,97,129.93,96.48,129.06,96.83Z"/><path class="cls-4" d="M157.44,109.2c.3,0,.59.19.9.1.61-.21.06-.57-.48-.57C157,108.87,158.27,109.06,157.44,109.2Z"/><path class="cls-4" d="M139.72,96.74c0,.4,2.42.56,2.56.05A6.13,6.13,0,0,1,139.72,96.74Z"/><path class="cls-4" d="M138.38,93.89a2.1,2.1,0,0,0,1.85-.12A7.26,7.26,0,0,0,138.38,93.89Z"/><path class="cls-4" d="M148.73,98.22a3.38,3.38,0,0,0,1.84,0A3.58,3.58,0,0,0,148.73,98.22Z"/><path class="cls-4" d="M155.26,99c.41.15.86,0,1.27.11.21-.13-.27-.27-.5-.41Z"/><path class="cls-4" d="M158,98.82c.46.3,1,0,1.45.19C159.72,98.84,158.46,98.44,158,98.82Z"/><path class="cls-4" d="M183.55,110.48c.2,0,.11-.1,0-.16.25-.08.48.09.71.18.45-.09.29-.57,1-.39.66-.27-1-.11-.33-.32C184.34,109.82,182.59,110.09,183.55,110.48Z"/><path class="cls-4" d="M185.63,110a.76.76,0,0,0,.73,0c.26.11.53.22.33.33.3.09.63-.12.94-.22l-.87-.43C186.36,110,186,109.74,185.63,110Z"/><path class="cls-4" d="M189.67,111.58a3,3,0,0,0,1.49-.13C190.7,111.15,190.19,111.34,189.67,111.58Z"/><path class="cls-4" d="M168,100.08c.78.11.77-.46.44-.63C167.51,99.42,168.16,99.85,168,100.08Z"/><path class="cls-4" d="M166.63,99.08c1,.16,2.29.42,2.78-.18C168.47,99.05,167.61,98.52,166.63,99.08Z"/><path class="cls-4" d="M169.28,100a7.28,7.28,0,0,0,1.85-.13,13.71,13.71,0,0,1-1.81-.19C169.15,99.81,169.54,99.92,169.28,100Z"/><path class="cls-4" d="M172.25,101.46c1.62-.12,2,.15,1-.7C172.45,101,172.51,101.22,172.25,101.46Z"/><path class="cls-4" d="M195.19,111.54a2.41,2.41,0,0,0,1.83,0A3.34,3.34,0,0,0,195.19,111.54Z"/><path class="cls-4" d="M204.08,112.45c1.77-.42,3.24,0,4.29-.63a24.22,24.22,0,0,0-4.06.23c-.18-.11.2-.21.4-.31C203.49,111.43,203.39,112.07,204.08,112.45Z"/><path class="cls-4" d="M183.33,100.89c.94.24.39-.61,1-.38C184.39,100,183,100.7,183.33,100.89Z"/><path class="cls-4" d="M184.27,100.67a2.32,2.32,0,0,0,1.67-.21A2.9,2.9,0,0,0,184.27,100.67Z"/><path class="cls-4" d="M212.58,112l.69.33c.37-.12.2-.26.6-.39C213.43,112,213,111.78,212.58,112Z"/><path class="cls-4" d="M196.32,102.94c.29-.18-.15-.38.61-.55C196.08,102.28,195,102.86,196.32,102.94Z"/><path class="cls-4" d="M222.4,96.24a1.18,1.18,0,0,0,1.69-.36A6.17,6.17,0,0,0,222.4,96.24Z"/><path class="cls-4" d="M241.21,96.88c1.34.32,1.34-.4,3,0,.59.32-1.32.2-1.75.38a5.13,5.13,0,0,0,3.06-.36c-.85,0-1.17-.13-1.21-.34,1.57-.39,2.79.24,4.41-.19a5.07,5.07,0,0,1-2.25-.27,11.2,11.2,0,0,1-4.71,0C241.66,96.29,243.1,96.61,241.21,96.88Z"/><path class="cls-4" d="M253.73,96.87l1.11.33a10.17,10.17,0,0,0,2.27-.46c-1-.29-3.27.39-1.87-.18A1.93,1.93,0,0,0,253.73,96.87Z"/><path class="cls-4" d="M258.35,97.33a7.86,7.86,0,0,1,2.42-.62l-.8-.26a2.43,2.43,0,0,1-1.05.07c-.24.31.18.22-1.27.39C258.18,97.06,257.75,97.18,258.35,97.33Z"/><path class="cls-4" d="M263.21,97.71c1.34-.3,2.17,0,3.49-.28-1.22-.2-2.95.16-4-.29C261.84,97.49,263.06,97.35,263.21,97.71Z"/><path class="cls-4" d="M269.11,97c-1.13.18-1.64.36-.89.56a9,9,0,0,0,1.45-.15C269.77,97.25,269.56,97.11,269.11,97Z"/><path class="cls-4" d="M269.83,97.22c.48.14,0,.27.54.42.74-.12.65-.35,1.21-.23.49-.13-.24-.28-.53-.42Z"/><path class="cls-4" d="M272.47,96.6c-.36.17,1.6.7,2.89.36A10.71,10.71,0,0,0,272.47,96.6Z"/><path class="cls-4" d="M274.76,112.9a13.4,13.4,0,0,1,.37,2.15c.32-.86,0-1.51.27-2.38C275.2,112.09,275,111.51,274.76,112.9Z"/><path class="cls-4" d="M274.88,122.88a5.81,5.81,0,0,0,0,2.59l.34-1.3Z"/><path class="cls-4" d="M274.73,129c-.06.64-.09,1.27-.12,1.91l0,1-.05.57c.09.31.19,0,.29-.24s.19-.78.28-.25c.1-.77-.13-.65-.23-1C274.78,130.31,275.06,129.69,274.73,129Z"/><path class="cls-4" d="M275.56,132.75c-.15.41.2.88.05,1.29.31-.06.36-.55.43-1.24C275.89,132.46,275.71,133.24,275.56,132.75Z"/><path class="cls-4" d="M274.26,136.83c.44,1.15,0,2.2-.07,3.29.49.77.58-1.29,1-1.72-.46-.21-.5.07-.62-1.17.36-.76.61-.62.6-1.58C274.72,135.44,274.62,135.87,274.26,136.83Z"/><path class="cls-4" d="M275.3,137.13c-.12.78.06,1.59-.13,2.37A2.63,2.63,0,0,0,275.3,137.13Z"/><path class="cls-4" d="M275.62,141c-.16.29-.08.6-.26.89.23.53.49-.41.72.26a2.2,2.2,0,0,0-.13-1.12C275.67,141.8,275.87,141.82,275.62,141Z"/><path class="cls-4" d="M275.59,146.34c-.21.28-.17.59-.26.89.19-.13.37.35.57-.12C275.6,147,275.81,146.85,275.59,146.34Z"/><path class="cls-4" d="M258.2,213.41a12.44,12.44,0,0,0-4.49.18c1.35.15,2.75.4,4.11.46C258.21,213.84,258,213.62,258.2,213.41Z"/><path class="cls-4" d="M233.3,214.56c-.39-.34-.86,0-1.28-.11C231.72,214.68,232.93,214.9,233.3,214.56Z"/><path class="cls-4" d="M214.65,213.84c0-.32-1.55-.35-2.2-.05A13.45,13.45,0,0,0,214.65,213.84Z"/><path class="cls-4" d="M205.68,213.57c-.89.21-2.5.19-2.81.5C203.73,214.11,205.35,214,205.68,213.57Z"/><path class="cls-4" d="M187.64,214a13.34,13.34,0,0,0-2-.12C185.56,214.12,187,214.34,187.64,214Z"/><path class="cls-4" d="M168.7,212.62c-.08.19-.54.37-.62.55a2.2,2.2,0,0,0,1.12-.14C168.86,212.89,169.07,212.76,168.7,212.62Z"/><path class="cls-4" d="M107.13,184.88c-1.44-.24-3,.47-4.43.23C103.37,185.73,105.76,185.12,107.13,184.88Z"/><path class="cls-4" d="M102.49,185.35a2.1,2.1,0,0,0-1.85.12A5.06,5.06,0,0,0,102.49,185.35Z"/><path class="cls-4" d="M134.24,213.74c-.16.13-.17.27.14.41a15.7,15.7,0,0,0-2.95.09,11,11,0,0,0,3.66.08C134.42,214.12,134.65,213.94,134.24,213.74Z"/><path class="cls-4" d="M128.5,212.49c0,.24-.86.47-.26.72C129,213.22,129.05,212.75,128.5,212.49Z"/><path class="cls-4" d="M130,214.05c.21-.13-.28-.27-.5-.41-.5.15-.72.31-.79.47C129.1,214.26,129.58,213.79,130,214.05Z"/><path class="cls-4" d="M86.15,215.21a1.56,1.56,0,0,0-1.33.38,2.32,2.32,0,0,0,1.12-.14C85.78,215.37,86,215.29,86.15,215.21Z"/><path class="cls-4" d="M83.29,216.2a1.21,1.21,0,0,0-1.15.46C82.92,216.69,83.27,216.5,83.29,216.2Z"/><path class="cls-4" d="M80.05,215.65a25.59,25.59,0,0,0-4.79.06c.32.38-.67.29-1.34.53C76.13,216.25,77.61,215.78,80.05,215.65Z"/><path class="cls-4" d="M74.51,215.85c-.65-.22-1.36.12-2,.2A2.77,2.77,0,0,0,74.51,215.85Z"/><path class="cls-4" d="M71.74,216a9,9,0,0,0-2.2,0C69.64,216.26,71,216.43,71.74,216Z"/><path class="cls-4" d="M69.79,215.43a6.14,6.14,0,0,1-1.8-.36c-.53.33-.9.34-.45.8C67.73,215.32,69.05,215.71,69.79,215.43Z"/><path class="cls-4" d="M68.19,219.91c.26-.36-1.06-.2-1.47,0a2.73,2.73,0,0,0,.89.26C68,220,67.81,219.79,68.19,219.91Z"/><path class="cls-4" d="M56.72,216.75c.36-.05.22-.1.06-.16l-.59-.17c-1.06.37-4.32,0-6.58.49.39.08.43.17.19.24,1.69-.19,3.24-.15,4.92-.42,1.51.41-.89.28-1,.63.67.27,1.8-.48,2.47-.21C56.77,217.06,55,216.56,56.72,216.75Z"/><path class="cls-4" d="M64.87,220c-.28,0-.57,0-.87,0l-1.55,0c-1.16.05-2.35.15-3.57.32,1.16,0,2.34,0,3.51-.08l.89-.05.44,0,.27,0Z"/><path class="cls-4" d="M47.9,217c-1.11,0-.75-.53-2.32-.51.36.32,0,.51-1.8.62A17.49,17.49,0,0,0,47.9,217Z"/><path class="cls-4" d="M45.17,217.51a23.16,23.16,0,0,0-5,.26A27.53,27.53,0,0,0,45.17,217.51Z"/><path class="cls-4" d="M29.94,217.41c-.56.13.59.28-.12.41,2.27,0,5.32-.74,7.11-.25.38-.44-.87-.4-2.48-.29A26.78,26.78,0,0,1,29.94,217.41Z"/><path class="cls-4" d="M37.3,217.9c-2.15-.26-5,.23-7.77.48C31.64,218.68,34.71,218.11,37.3,217.9Z"/><path class="cls-4" d="M30.46,219.13c.67-.43-2.59,0-3.7.12C27.68,219.48,29.46,219,30.46,219.13Z"/><path class="cls-4" d="M29.6,218.63c-1-.07-1.94-.18-3-.18a7.54,7.54,0,0,0-.35-2.49,11.77,11.77,0,0,1,.09,2.75A14.65,14.65,0,0,0,29.6,218.63Z"/><path class="cls-4" d="M27.09,211.21c-.4,2.32-.73.08-.54-1.41.32-1.13.41.58.54,1.41.4-1.14-.15-1.74.19-2.85-.71-.19-1.46-4.52-1.76-6.63-.58.34.4,4.72.74,4.7-.47.47-.11,2.74-.58,2,.49,2.43,1.08,4.28,1.84,7.25A10.15,10.15,0,0,0,27.09,211.21Z"/><path class="cls-4" d="M26.31,202.18c.13.32.28-.69.42-1.19a18.56,18.56,0,0,1-.29-2.72c-.14-.09-.28.51-.4-.25-.09.72-.1,1.44-.19,2.18C26.06,201.11,26.57,200.15,26.31,202.18Z"/><path class="cls-4" d="M27,197.79c0-1-.21-3.43-.54-1.63C26.63,197.45,26.82,197,27,197.79Z"/><path class="cls-4" d="M26.06,195.88c.38.57.05-1.6.35-2.17-.31-.28-.32.13-.47-1.37C25.68,193.56,26.09,194.7,26.06,195.88Z"/><path class="cls-4" d="M45.33,113.42c-.26-.19.61-.36-.12-.57-.32.15-.62.06-.94.23,1.48.07-.76,1.42.87.42a22.09,22.09,0,0,1,4.73.42c.74-.34,1-.21,1.27.11.17-.11-.22-.22,0-.33.71-.15.19.32.87.43.19-.39.57-.33,1.57-.94a4.76,4.76,0,0,0-2.06.36c-.5-.46-1.08-.17-1.64-.11-1.12-.76-3-.39-3.59-.72-.86.32.87.61,1.22.59C46.77,113.66,46.11,113,45.33,113.42Z"/><path class="cls-4" d="M60.94,116.73a8.46,8.46,0,0,0,2.93.06c-.65-.17-.18-.32-.68-.49C62.79,117,61.8,116.49,60.94,116.73Z"/><path class="cls-4" d="M65.51,116.91c.53,0,.74-.18.23-.4.25-.07.48.09.71.18.72-.17.52-.37,1-.54a11.59,11.59,0,0,0,3.32-.09c1.25.84,2.67.15,4,.4-.14.65-2.08.19-2.29.76,2.06-.21,3.23.38,5.53-.21a1.41,1.41,0,0,0,1.82.21c.45.36.16.75-.65.87.28.23.62,0,.91.1-.33-.28.87-.52.09-.81,1.23.45,2.58-.12,3.85,0-1.71.3-2.81.63-3.19.65.49.6,2.71-.18,3.89-.32,0,.42,1.32.33,2,.29.16-.11-.22-.22,0-.33a3.43,3.43,0,0,0,.56-.06c0,.13-.26.26.14.4,1.53,0,3.09-.26,4.62-.3.11.08,0,.16.16.24-1.65.14-2.21.41-3.73.57,1.24.39,2.56.09,3.82.32.46-.28-.56-.11-.7-.34a3,3,0,0,1,.94-.22c.82.25.18.65,1,.67.37-.13.19-.27.59-.39-.17-.08-.37,0-.55.07-.41-.2-.25-.83-.7-.34-1-.46.27-.62,1-.54-.95.23,1,.3.29.65.47.15,1-.41,1.5-.29.51.32-.82.5-1.34.53-.48.21.4.44-.07.64.65.22,1.36-.13,2,.13-.07.35-.75.23-1.17.62.62.47,1.36-.13,2,.28.36-.28-.81-.16-1-.5a7.54,7.54,0,0,1,1.64.11c-.79-.34-.33-.52-.09-.89a3.55,3.55,0,0,0,.56-.06c.8.17-.49.31.31.49.85-.51,5.1,0,4.71.58.52-.28,1.13-.12,1.15-.46,1,.26.28.49.84.74-.91-.1-1.86.21-2.76,0a9,9,0,0,0,3.82.32c.35.17-.3.31.32.49a3.7,3.7,0,0,1,2.75,0c.15-.41.92-.34.46-.8.51.36,1.25-.15,2.18.21-.48-.6,1.53-.21,1.53-.61,1.31.26-.82.46.11.72a2.31,2.31,0,0,1,1.67-.2c.05.19-.16.37-.24.56-1.91.17-3.7-.17-5.17.21.4.31.88-.16,1.26.27,2.48-.87,4.71.6,7.17-.09,2.24.85,6.58.08,7.6,1,.73.07,1.46.09,2.19.2.45-.6,1.66-.14,2.59-.26.06.13-.26.26.14.4.11-.42,1.42-.41,1.3,0,2.06-.44,4,.3,6,0-.56-.24.48-.37.78-.47.32.19-.79.36-.61.55,1.67.43,3.44,0,5.15,0-.11.61,2,.68,2.36.29.33.3.71.11,1.06.35,1-.87,4.64.46,6.82-.26,1.53.93,4.64-.48,5.82.45a6.54,6.54,0,0,0-1.65,0c.37.45,2.26-.14,3.66.08.58.09,2.62.62,2.74.14.39-.18.71.26,1.06.34,1.32-.29,2.57,0,3.89-.32a56.17,56.17,0,0,0,7.12.4q20.86,1,41.79,1.61,10.45.28,20.93.47l1.31,0,.43,0,.74,0,1.44.07,2.78.13-.09,3,0,1.48,0,3.32q0,11,0,22.09l.09,22.11,0,2.61V182l0,1.5.08,3.09-3.7.1c-.2-.19-.12-.37-.11-.55a3,3,0,0,0,1.75.11,3.33,3.33,0,0,1,1.68,0l.06-.11a1.48,1.48,0,0,1-.37-.68c.16.1.06.13.23.35.2,0-.39-.71.05-.51-.21-.31-.44-.34-.64-.62.8.2.57-.9.16-1.64a1.3,1.3,0,0,0,0-1.44.23.23,0,0,1,.24,0,2.45,2.45,0,0,1-.12-.31,1.67,1.67,0,0,1,0-.24v-.34l0-.69c0-.91,0-1.86,0-2.76a18.42,18.42,0,0,0-.28-4.56c.22-.49.3,0,.33-.7-.1-.19-.21.16-.32.33.56-4.1-.44-7.47.25-11.72-.53-.41,0-2.48,0-3.49,0-1.7-.52-2.93-.08-3.68A8.51,8.51,0,0,1,245,149c-.14-.83-.33.42-.47-.42-.19-.18.27-1.13.33-.69-.41-1,0-2-.26-3,.12-.36.22-.18.33,0-.42-1.33-.11-2.58-.32-3.9.6-.08.06-.09.34-1.06-.21,0-.39-.49-.38-1,.13,0,.27-.19.41-.5-.6-.92.25-2.65-.39-4.45.14-.31.28-.31.41-.14,0-.53-.06-1.28-.07-2v-.56c0-.36,0-.67-.24-.68-.08-.19.47-.66-.09-.67.39-.39.64-1,.23-.84a8.85,8.85,0,0,0,.17-1.79,14.35,14.35,0,0,1-3-.18c-.11.1-.1.21-.19.31-.05-.24-.12-.16-.26-.44a1.57,1.57,0,0,1-.79.13l-.2,0h-.1l-.4,0-1.75-.08a35,35,0,0,0-7,.2c-.34-.14-.14-.27-.51-.41a34.08,34.08,0,0,1-5.15.05c.06.23.42.93-1.22,1.1-.46-.33,0-.51-1-.67-.25-.25,1-.55,1.31-.21.71-.38-1.18-.58-1.08-.19-2.26-.64-4.67.21-6.93-.47-.56.55-2.1.35-3.1-.14-.39.1-.23.21,0,.32-2-.3-4.14-.13-6.19-.46-.19.13,0,.27-.23.4-3-.32-7.12.19-9.29-.6-.18.08.06.16.15.25-3.28-.21-6.61,0-9.85-.53-2.38.32-6.23-.09-9.17-.2-.71.17.12.38-.6.55a1.84,1.84,0,0,1-.74,0c.79-.88-2.22-.46-3.22-.72-.38.43.82.1,1.06.35s-.85.23-1.13.3c-1.13-1.07-3.65-.47-5.41-.93-.72.18.11.38-.61.55-.25.07-.48-.11-.73,0-.18-.14.33-.26.59-.39a2,2,0,0,0-1.66,0c0,.16.59.34-.05.49.35.16.75-.11,1.08.18-.65.32-1.21-.14-1.87.28-.55-.48-1.19-.27-1.79-.36-.12-.4,1.19.11,1.67-.2-1.13-.56.52-.2,1-.39-1.72-.61-1.61.06-3.26-.39-.33.16.47.33.31.49s-.36,0-.54-.09c-.3.21-.13.3.33.33-1,.43-1.86.24-2.82.66-.55-.17-.87-.19-.68-.49-.8,0-1.67.64-2.43.35-.41-.17.6-.31.78-.47-.58-.23-1.13.17-1,.38-.58.24-1.07-.35-1.64-.11-.2-.17.45-.31-.32-.49-.89.6-3.71.69-3.68.08-.8,0-1.56-.27-2.4.19-.94-.66-2.49.07-2.88-.54-1.06.94-3.34-.58-5,.13-1.5-.24-3.06,0-4.55-.34-.49-.23.94,0,0-.32-2.53.71-4.86-.38-7.35,0,.29.16.6.08.89.26.14.11-.26.21,0,.32-1.09-.1-2.14-.51-3.24-.55-.21.19.29.16.52.25.3.3-.82-.08-1.13.3,0-.22-.22-.3-.7-.34-1,.9-2.88-.37-4.43.23-.64-.23-.61-.44.07-.64-.46-.31-1,0-1.45-.2-.2.13.28.28.51.42a3.06,3.06,0,0,1-1.5.29c-.26-.17-.07-.33.42-.48a18.44,18.44,0,0,1-3.86,0c-.19-.16.46-.31-.31-.49-.81.82-4.66.17-5.94.52-.37-.4-1.84-.33-.66-.66-.78-.1-.86.12-1,.38-.77,0-.89-.78-2-.44.34.28.74,0,1.08.18-.25.08-.3.16-.2.24-1.84-.07-3.61-.57-5.52,0,.1-.44-.06-.39-.64-.82-.59.23.13.49.47.74-1,.64-1.91-.43-2.95.1-1.09-.32.52-.58-.09-.89-.7.28-.36.58-.65.87-.73.28-.69-.32-1.08-.18-.17-.14.34-.26.6-.39-.63-.13-1.66.09-1.33.37-1.23-.57-1.25-.08-2.12-.69a4.33,4.33,0,0,1-2.57,0c-.18.21.46.44-.44.63l.87.43c.67,0,.36-.42,1.1,0,.39-.1.23-.21,0-.32,1.13,0,4.68-.06,4,.73.34.19.76-.24,1.13-.3.6.34.07.6-.63.71.37.11,2.25.1,1.5-.29.81-.11,1.56.26,2.41-.19.31.19-.8.36-.61.55.6.34,2.54-.25,2,.44.45.2.68-.23.4-.31a5.64,5.64,0,0,1,2,.28c.19-.13,0-.26.23-.39.44-.13.84.07,1.29-.06,0,.14-.09.27-.23.4a16.32,16.32,0,0,1,4.78-.06c.4.24-.57,0-.76.31.52.24,1.11-.11,1.62.27a3.07,3.07,0,0,1-2.19-.2c-.62.66-2.5-.16-3.69.24,2.4.26,4.58.12,6.57.3.46-.28-.55-.11-.69-.34,1.22-.42,1.13.72,2.35.3-.36-.09-.73-.1-1.08-.19.53-.41,1,.12,1.5-.29.46.15.06.27-.23.4.3,0,.62-.09.91.1.36-.55,3.49-.16,4.95,0,.29.4-.81-.19-1.11.14a50.65,50.65,0,0,1,7.5.24c.18.14-.34.26-.59.39.74.42,1.38-.13,1.32-.37,1.1-.08,0,.47,1,.66,1-.16-.69-.39-.12-.56,1.52,0,3.1-.41,4.57.18.61-.56,1.26-.28,2.25-.44.65.17.18.33.68.5a11.57,11.57,0,0,1,3.51-.17c.24.31-1,.18-1.31.21a5.13,5.13,0,0,0,3.14-.17c.68.2-.19.37.49.57-.54.26-1.31,0-1.33.38a23.28,23.28,0,0,0,5.93-.52c1,.26-.7.47.1.73a21.88,21.88,0,0,1,5.83.44,2.69,2.69,0,0,1,2.2.05c.38-.15-.23-.33.42-.47,1.37.56,4.77-.25,4.9.5,2.28,0,5.44.51,7.15.08,1.11.47,2.33,0,3.42.63.85-.44,1.59,0,2.45-.51.65.17.18.33.68.5a108.73,108.73,0,0,1,12.78.59c.13-.2.61-.39-.14-.4a59.56,59.56,0,0,0,10.61.38c.88-.18,1.67.43,2.53.38.17-.1-.22-.22,0-.32a10.25,10.25,0,0,0,4,.08l1.05.51a63,63,0,0,1,11.17.32c.12-.08,0-.16.21-.24,6.43.48,12.95.24,19.39.57a10.74,10.74,0,0,1,3.46-.15l2.47.15c.1.05.06.09.09.1s.15-.26,0,.16l.12-.3c-.22.6.16-.18-.1.4.29-.42.1,0,.13,0l.13-.09-.34.3c.25-.19.18-.08.12,0s-.12,0,.14,0l-.19,0h0s0,0,0,0v.2l0,.39a10.11,10.11,0,0,1-.14,3.11c.45,1.27-.14,2.43.24,3.7a61.76,61.76,0,0,0-.05,10.27c-.27,7.57.25,15.21,0,22.77l.3.77c.08.33-.14.32-.24.16.11,2,.15,3.76.19,5.51,0,.44,0,.87,0,1.32l0,.66v.34c0,.08,0,.07,0,.07h0l.14.1-.33,0s.58.14.29.1a1,1,0,0,1-.23-.07q-.17,0,.21.09a1.1,1.1,0,0,0,0,.43c-.15.06-.29.17-.58.31l-18,.49c-12.46.35-24.94.73-37.55.92l-.58.23c-4-.25-8.14.54-12.12.06-.72.1-1.36.64-1.49.13a6.63,6.63,0,0,1-3.31.09l-.77.31a17.29,17.29,0,0,0-4.24.15c-6.75-.41-13.66.64-20.36-.19l-.77.31a6,6,0,0,0-3.68.08c-.34-.14-.13-.27-.51-.41-.52.6-1.12.22-1.65,0a24.38,24.38,0,0,1-6.28.35c-.31-.14-.31-.28-.14-.41-.56-.08-.66.57-1.68.21-.18.08.07.16.16.25-.57.14-1.08-.17-1.68.2-.36-.11-.17-.22,0-.32a10.34,10.34,0,0,1-3,.42c-.49-.42.62-.21,1.15-.46-2.25.37-4.47.54-6.7.83l-.88-.43c.2-.36-.53.2.33.33a21.3,21.3,0,0,1-3.36.58c-.23-.35-1.55-.23-.68-.5-.62-.13-.64.47-1.84,0-.87.32.44.26.7.34-1.33.41-2.57,0-3.91.48-.17-.12.21-.21.4-.32-.35-.1-.75.17-1.08-.18.31.45-.65.17-1.34.53-3.15-.62-6.81,1-9.56.12-.63.73-2.59.59-3.75.73.06-.51,1.59-.13,2.25-.44-.29-.16-.6-.08-.89-.26,1.06-.21,2.16-.67,3.21-.81-.14.83,2.75,0,3.31-.09a17.23,17.23,0,0,0-7.59.56c-.17-.14.34-.26.6-.39-1.14.09-3.5.09-3.58.81-.71.15-.45-.32-.87-.42-2.13.5-3.46.49-5.81,1.08a30.15,30.15,0,0,0-8.54.79,13.76,13.76,0,0,0-5.41.77,15.16,15.16,0,0,0-3.1.1l-1.79.21-.24,0-.17,0-.19.06-.39.12c-1.06.32-2.4.53-3.08-.06,0,1-1.45.56-1.91,1.47-.4-.08-1.6.86-1.63.26a13.46,13.46,0,0,1-3.11.68A10,10,0,0,1,54,187.7c-.25-.08-.51-.22-.78.08a1.46,1.46,0,0,1,.36-1.17c-.37-.12-.19-.5-.21-.79-.44.05-.37-.26-.78-.34-.22.29.13.38,0,.65a5.89,5.89,0,0,1-.38-2.52,8.43,8.43,0,0,1,.19-1.5,5.75,5.75,0,0,1,.2-.71l.06-.17.06-.28.15-.56c-.59-.38-.72-1.44-.59-2.63A27.11,27.11,0,0,1,50,169.43l.5-1.05c-.52.29-.38-1.64-.67-2.46.11-.07.22-.14.32,0a31.27,31.27,0,0,0-1-7.28c-.16-2.78-.41-6.52-1.34-8.78.09-1.88-.86-5.4-1.23-6.93a42.51,42.51,0,0,0-1.94-6.82c0,.7-.29.69-.51,1-.25-.52,0-1-.29-1.51-.16.9.14,1.3-.2,1.82.55.92-.24,2.45.34,2.79.16.44-.32.82-.43,1.23.12,1.18.16,2.35.17,3.51a30.08,30.08,0,0,0-1.06-3c.19,4.37.31,10.31,1.36,15.39a2.77,2.77,0,0,1-.19,1.45c.13,0,.27,0,.41-.14a10.71,10.71,0,0,0,.2,1.67c-.74.77.44,2.94,1,4-.28.51-.53-.29-.78-.83.09.52-.14,1.29-.43,1.24-.35-.93,0-1.08-.53-1.71-.25.4.51.92,0,1.29.15.69.32.26.47.79a1.63,1.63,0,0,1,0,.73c-.26,0-.52-.83-.78-.82a5.35,5.35,0,0,0-.07-.56c.49.45.12-1.13,0-1.83.14-.34.27-.14.41-.51-.24-1.62-1.07-2-1.22-3.44.3-.12.57,1.28.85,1.75,0-.66-.14-2.06-.52-1.71.28-1.74-.39-3.59-.78-5.41-.26,1.07.37,2.24.58,3.37-.77-.7-1-2.92-.56-4.1a8.76,8.76,0,0,1-.47-4.28c-1.06-4.46-.71-8.77-1.58-13.21-.39.94-.12,1.94-.7,2.86A5.62,5.62,0,0,1,39,141c.1.36.21.17.32.4-.55.74,0,1.59-.3,2.35-.19.36-.37-.1-.55-.6-.33.94.05,2-.06,2.93-.2.73-.37-.4-.57.11-.25,1.42.36,2.23.48,3.91-.44.45-.77-1.46-1-2.13a2.16,2.16,0,0,1-.26.9c.08.18.16-.07.25-.17.19.75-.15,1.15.29,1.51-.14.33-.27.13-.42.5a12.72,12.72,0,0,1,.09,3.69c.2.46.42.49.64.07a2.73,2.73,0,0,1,.3,1.13,2.66,2.66,0,0,1-1,.63c-.09-1.49-.7-3.73-1.36-4.19a33.77,33.77,0,0,1-.1-6.81c-.65.54-.42-1.14-.36-2.06.35-.24,0,1,.22,1.31.36-.94-.33-2-.42-3,.22-.68.39.45.41-.51-.55-.25-.54-2.77-.4-4.08-.5-1.12-.25-2.38-.48-3.91-.54-.17-.13,1.32-.2,1.81a16.11,16.11,0,0,1-.34-6.65c-.66-1.57,0-6.82-1.38-7.31.2-1.34-.51-1.88-.25-3,.27,0,.18.73.55.61-.54-3-1.35-5.9-2.45-6.15-.25.68-.51,1.9-.92,1.55-.38,1.56-.28,4-1.3,4.45.44.75.25,2.09.75,2.29.09-.24-.06-.5-.14-.75.31-.35.21.09.39.59A2,2,0,0,0,29.1,122c-.2.52-.39.3-.56-.25-.06.47,0,.92.22,1-.59,1.11-.09,3.73.2,5.53-.75,2,.28,4.19.84,6.33l-.17.35c-.86-.9-.88-3-1.45-4-.23.35,0,.74-.34,1.07.87,3.19.54,5.11,1.11,8.2-.08.1-.16,0-.24.16a9.39,9.39,0,0,0-.9-3.41c-.25.47,0,1-.19,1.45.34-.2.42.3.22.94a.5.5,0,0,1,.65.07c-.2,1.06.08,3.47.74,3,.25.46-.51.16-.26.88-.17.11-.16-.73-.48-.42-.06.74.56,1.43.78,1.19.11.5-.43.38-.58.86.22,1,.47.38.7,1s-.26.62-.33.33c-.16.76.36.61.47.79s-.25,1-.5,1c-.3-.46-.2-.87-.38-1.32-.3,1.07.28,1.59.61,1.53a6.28,6.28,0,0,0,.74,3.39c-.24.93-.43-.14-.65.3-.13-.75-.18-1.49-.28-2.24-.34.68-.66.65-1-.1-.18.45,0,.91.22.94-.39.07,0,.87-.51,1a8.34,8.34,0,0,1,.41,3.35c-.23.25-.4-1-.05-1.29-.05-.19-.1-.11-.16,0l-.15-.38a3.93,3.93,0,0,0,.11,2.22c-.33.34-.64-.09-1,.25.33.41.18.43.46,1.16-.21.67-.39.44-.58.85.12.48.26.39.38.6-.17.5-.32,0-.49.67a19.48,19.48,0,0,1,.09,3.32c-.37.46-.2-.45-.54-1-.23.53.25,1.14-.12,1.64.13,0,.26.43.4.23-.34,2.65.4,5.43.15,8.09.1.2.22-.15.33-.33a3.26,3.26,0,0,1,.37,1.33c-1.28.63.3,3.61.05,5.15-1.14-.54-.8-2.5-1.28-4-.27.77.3,1.75-.29,2l.46,1.15c-.14.45-.27.33-.41.51,0-.49-.34-1-.13-1.49-.36.25-.2-.47-.55-.61-.64.79.79,1.8.11,2.58.43.86.87,1.76,1.31,2.54-.23.71-.44.31-.64-.08a1.36,1.36,0,0,0-.23.9v.23l0,.35c0,.3,0,.6,0,.9.21-.22.43.14.63,1.51.1-.68-.17-1.43.18-2.07a10.47,10.47,0,0,1,0,3.49l.69,3.14c-.48.59-.38-.63-.42,1.73-.24,1.68-.42-.74-.65.72.78.4.52,2.38,1.15,4.39-.14,2.08-.16,4.14-.39,6.29.75,1.26.89,3.15,1.3,5.2-.23,1.66-.42-.88-.63-.35a12.46,12.46,0,0,0,1.68,6.27c.2-3.18-.86-3.33-1.06-5.24.14-.67.28-.77.41-.55.15-.95-.34-2-.47-1.09a17.45,17.45,0,0,0-.26-5.53,19.09,19.09,0,0,1-.08-6.44c.93,2.12.95,7,.84,10.4,1.1,1.47,1,6,1.08,10-.49-.73-.84-1.11-1.43-.89.34.65.17,1.64.45,2.31l-.13.6c2,.61,4.27-.53,6.22.19,3.42-.37,2.32-.26,5.41-.5-.77-.15.39-.27,0-.41a17.09,17.09,0,0,0,2.82-.29c1.24.32-.69.49-1.67.47,0,.37,4.1-.07,4.21-.44,1.26,0,2.73-.27,3.72.21,1.81.06,4-.76,5.69-.5,1,.48-1.07.91-2.26,1.35,2.42,0,3.64-.7,6.78-.56,1.09.32.45.38,1.86.34,1.14-.29-2-.12-.86-.41a16,16,0,0,0-2.93,0c-.36-.41-.08-.37-1.81-.34-.28-.11.41-.21.77-.32.9-.13,1.54.45,2.43.36,0-.14.78-.26.45-.4a30.34,30.34,0,0,1,3.17,0c.44.22.12.3-.71.31-.63.08-.25-.14-.89-.25-.21.24-.74.47.12.73.59-.16,1.16-.3,1.72-.41l.83-.17.47-.15c.64-.17,1.26-.3,1.89-.41,1.24-.21,2.48-.34,3.74-.64.26.12.52.23.33.33a9.16,9.16,0,0,1,3.38-.73c.14.42-1.86.61-1.74.85-.49-.36-1-.17-.2.07a31.25,31.25,0,0,1,5.57-.52c.57.55-1.94.34-1.93.93.71,0,.93.15,1.3-.22,2.39.45,6.79-.77,9.29-.93.52.23-1.47.4-.44.64.36-.46,1.28-.58,2.1-.68a4.35,4.35,0,0,0-1.65-.12c-.1-.08,0-.16-.15-.25,1.13-.27,2.17.32,3.33-.25.34.14.13.27.5.42.91-.37,1.73-.1,2.61-.27.3.14.31.27.14.41.41.13.88-.23,1.27.1.39-.1.23-.21,0-.32,3.39.11,5.68,0,9-.21.27.17.07.32-.42.47.55,0,1.12-.13,1.66,0,.9-.2-.35-.44.44-.63a3.51,3.51,0,0,0,2.58-.11c.5.17,0,.32.68.5.34-.18-.09-.38.25-.56,1,.47.84,0,2.21-.12.5.18,0,.33.68.5.16-.13.17-.26-.14-.41,1.17-.22,3.65.34,3.58.89,1.74-.29-1.36-.49-.26-1,.63,0,.42.23,1.23.42.88-.3,1.88,0,2.27-.59.81,0,1.72-.05,2,.44l1-.38c-.65-.44-.26.34-.91-.1.53-.59,3.21-.14,4.83-.54-.28.32-.13.59-1,.7,1.24.46,1.52-.6,2.83-.66.79.52,1.7.08,2.58-.11a5.62,5.62,0,0,0,3.1.15c.24.35-1,.11-1.32.37.35.25-.54.48-.27.72,1-.47,2.49-.53,3.42-1.05.29.15.74,0,1.45.19.37.48-2.2.07-.8.63-.58.31-1.09-.11-1.68.2.52.39,2.1-.25,2,.29.61-.28,1.26-.15,2.25-.44-.08.66,1.06,0,2,.45a20,20,0,0,1,3.36-.57c0-.33-.87-.59-1.43-.36.13-.56,1.73-.22,2.41-.19.16.25-.35.5-.61.55.11.27.64.28.66.66.1-.72,1.09-.18,2.1-.68-.38-.43-.87.05-1.26-.27.61,0,1.26-.31,1.83,0,.18.16-.31.07-.57.23.25.16.77.09.52.25.66.26.28-.52.92-.06-.17-.27-.52-.55.09-.8.88,0,0,.27.68.5.51-.18.33-.37.25-.56.3,0,.6.11.92-.06.94.37-.61.68.07,1.05.21-.22.55-.42.44-.64.65-.35,1.18.37,1.85-.12.67.2.43.38.85.58a5,5,0,0,1,2.39,0c.48-.55,1.83-.38,2.79-.34.5.17-1,.3-.05.48.85-.49,1.75-.23,3-.26.77-.17-.31-.38.25-.56,1.07-.07.16.48,1,.67.48,0,.68-.1.77-.31,1.73.92,3.72-.42,5.49.12.66-.53,1.06-.44,2.29-.76.33,0,.54.32,1.26.27.17.41-1.11.2-1.52.45a4.54,4.54,0,0,0,2.79-.34c.9.15.47.34,1,.67.73-.11,1.14.13,1.5-.29l.7.33c-.3-.44,1.66-.59,2.39,0,.6-.58,1.11-.32,2-.2.76-.27-.08-.09-.34-.33.46-.2.86,0,1.3-.05.68.4.19.39-.08.64a4.1,4.1,0,0,1,2.32.62.77.77,0,0,1-.55.07c.09.3,1.81.17,2.54.21-1.91-.26-1.54-.78-3.38-1,1.76-.66,1.94.51,3.26.4,0-.35-1.37-.73-1.17-1.08.48.32,1.74.28,2.13.69.53-.33.57-.68,1-1-.24.57.68.55,1.38.83.35.23-.81.41-.07.65.34-.26.51-.26.44-.64.48,0,1.15.3.75-.14a5.22,5.22,0,0,1,1.6.43c0,.25-1.67,0-1.34.54,1-.27,5.45-.92,4.59,0,.54,0,1.13-.33,1.65,0,.83-.76,2.74-.13,4.14-.88.3.54,1.44.21,1,.67.61.13.5-.41,1.34-.54a11.47,11.47,0,0,0,4.24-.15c.13.45,1.34.34,1.47,0,.5.44,1.08.17,1.6.44-.15-.27-.43-.28-.66-.66a3,3,0,0,1,1.78.52c1,.09.53-.47,1.83,0,.08-.13-.2-.27.23-.4a5.42,5.42,0,0,1-2.36-.29c1.34,0,2.69.11,4,.09.11.08,0,.16.16.24-.63.14-1.76-.21-1.87.28.95.27,1.83-.36,3.1.15a1,1,0,0,1,.76-.14c.16-.14.17-.27-.14-.41.82-.27,1.59,0,2.41-.19.65.17.18.33.68.5.72-.2-.37-.41.59-.39.68.22-.45.39.5.41.53-.12-.05-.27.23-.4,2.79,1,6.28.09,8.57.59.29.16-.54.31-.42.47,1,.18,2.14-.54,3.1.15.16-.13.18-.27-.13-.41.39-.28.74-.08,1.13-.29.46.14.06.27-.23.39.53.23,1.1,0,1.64.12.2-.1-.15-.22-.33-.33.4-.27.73,0,1.12-.14.05.14-.26.27.14.41l.77-.31c.49.17,0,.32.68.5.89,0,1.78-.1,2.67-.13h1.86l2.21,0-.89-.25a10.5,10.5,0,0,1,2.43-.13c.79.14.14.27-.31.4a26.11,26.11,0,0,0,5.76-.33,3.35,3.35,0,0,0,2.47.19c-1.65-.33-.25-.32.5-.47-2.73.13-4-.35-6.91-.17-.31.14.29.06.6.17-.6.35-1.2-.22-1.81.13a13.92,13.92,0,0,0-2.35-.67,46.12,46.12,0,0,0,5.67.08,24.42,24.42,0,0,1,5,.22c.17-.08,0-.16.24-.24,1.09-.15-.17.31,1,.42,1.6-.64,3.49-.23,5.36-.09.28-.44,1.52-.4,2.83-.29-.23.32-1.12.63-.08,1-.85.09-2.47-.05-2.32.29a3.46,3.46,0,0,1,2,.34c.3-.35,1.17-.27,1.26-.54.95-.11,2.17.2,3-.12,1.49.54,3.75.35,5.59.14l-.06-.69c.49.48.46-.67.11-2.63.14-.09.28.06.4.75.25-1.82-.27-4.42-.08-6.29-.15-.68-.33.5-.48-.43s.42-.85,0-1.81c.14-.43.28-.34.41,0,.08-.92-.45-.28-.22-1.72.17-.65.33-.83.49-.24-.22-1.71.24-4.26-.26-5.15.17-.77.32.11.49-.94-.49-.27-.06-1.66-.06-1.6,0-2.25-.68-3.17-.17-5.4-.47-.56-.22-3-.27-4.43.14-.08.26.46.41-.21a4.13,4.13,0,0,1-.26-1.84,2.73,2.73,0,0,0-.25-1.37c-.34-.31-.45.91-.27,1.26-.08.33-.36-.87-.3-1.13-.38-.38-.11.82-.18,1.08s-.27-.34-.39-.6.52-1,0-1.83c.2-.46.4-.88.58-.49.3-.64-.12-1.35.28-2-.21-.19-.49,0-.46-.79.59.46,1,1.87,1.3,3.26.06-.6.25-1.19.36-1.79-.16-.28-.48-.38-.23-.94-.12-.2-.26,0-.39-.23-.21-.83.2-.45.43-1.24-.68.1-.72-3.14,0-3.49-.4,0,0-.77-.37-1.32-.3.57.1,1.23-.21,1.81-.3,0,0-1.58.05-2.2-.16-.07-.31-.28-.46-.78s.25-.41.32,0c.13-.63-.41-.71-.56-.24.11.44-.1.84.21,1.3-.16.16-.32.16-.49.32-.22-.88.29-1.68.06-2.56.31-.17.88,1.33,1,.1-.44.19-.22-.27-.38-1,.48-.07.2.64.5-.68-.31-.1-.42-.17-.55-1,.62-.26-.19-1.38.37-2.16,0,2.22.52,4,.11,6.44.56-.87.21,1.7.85,1.38.16-.29.09-.61.26-.89-.52-.38-.11-1.9.21-2.18-.47.49-.4-.89-.88-.28,0-.49-.22-1,0-1.47s-.05,1.47.4.23c.35.41-.21.71.14,1.12.14-.34.27-.13.41-.51-.52-1.11-.09-1.38.28-1.62-.68-.08-.19-2.38-.33-3.53-.3-.4-.21.05-.41.51-.52-1.26,0-3.25-.48-3.91.2-.73.37.14.56-.12a17.88,17.88,0,0,1-.06,2.93c.21.35.42.38.64.07a.73.73,0,0,1,0-.73c-.11-.09-.21-.19-.32,0,.5-1,.06-3.77-.39-4.45.8.52.41-1.3,1-1.72a1.5,1.5,0,0,1-.06-.93c-.43-.37-.1.82-.34,1.07s-.55-.79-1-1.77c.45-.81.44.82.78.82.33-.89,0-.72-.2-1.67-.2.3-.38.08-.57.12-.11-.44.27-.83-.05-1.29-.34.76.32,1.62-.29,2.35a7.27,7.27,0,0,1,.5,2.81c-.2.31-.12-.84-.14-1.11-.28-.37-.31.93,0,.73-1.58.14-.17-5.25-.63-8.15-.12.26-.23.52-.33.33-.25.4.23.89-.11,1.27-.23.09-.5-1.38-.12-1.85-.39.36-.87-1.24-.45-1.88.09-.21.33,1.12.13,1.48.48-.21.47.43.88.65.2-.78.31-.53.51-1.41.16,1.32-.18,2.06.4,3.72.4-.75.38.09.67-1-.27,0-.55.67-.8-.46a29.73,29.73,0,0,0,.08-3.66c-.17.45-.33.61-.49.31a11.2,11.2,0,0,0-.11,1.64c-.23-.06-.36-.77-.46-1.15.11-.37.22-.18.32,0,.23-1-.46-.3-.29-1.5.24-.05.47.42.72.27-.58-1.34.06-3.78-.54-5.2.2-.25.38.23.58-.49-.17-.69.06-1.34-.36-2.06-.17.47-.33.64-.5.68-.17-.88,0-1.72-.26-2.6.32-.4.91.69.45,1.52.25-.4.47.31.72-.11-.55-.79-.31-1.62-.65-3.19-.34.39.13.87-.11,1.27-.2,0-.21-.3-.21-.64a5.06,5.06,0,0,0,0-.54,1.09,1.09,0,0,0-.05-.26,3.56,3.56,0,0,0-.09-.39c.14-.57.27-.22.42-.86-.87-.74.06-3.6-.34-5.25.61-.92.4,2.34.77,2.5a2.55,2.55,0,0,0-.07-1c.18-1.4.32.79.49-.61-.23-1.12.06-2.85-.37-2.21-.34-1,.18-2.11,0-3.15.21-.29.51.23.3,1.23.56-.36-.4-4,.38-4.53l-.46-1.79c-.14.83-.27.69-.41,1a2.92,2.92,0,0,1,.34-2c-.62-1.7,0-3.8.33-7.44-.43-1.59.27-6.23-.05-8.9-.38.27-.1,1.44-.27,2.43-.25-.08-.3-1.27-.3-2.54l-2.2,0c-.1-.41,1.95,0,2-.39-.77-.19-1.42-.32-1.34-.5-.94.15-2.83.63-4.17.93-1.52.1-.68-.44-1.62-.6-.73-.06-3.51.4-2.77-.11a36.31,36.31,0,0,1-7.46.15c-1.32-.26,1.48-.47.16-.73-2,.22.24.49-1.42.72s-1.32-.43-2.19-.68a24.55,24.55,0,0,1-2.58,0c.34-.21.15-.43-1-.66a1.3,1.3,0,0,1-1.1.23c-.85.22,1,0,1.17.34a7.29,7.29,0,0,1-2.6,0c-.75.2,1.12.3,1.53.26,0,.19-.38.37-.56.56-1.22,0-1.16-.3-2,.13-1.27-.38.42-.28.52-.56-1.27-.23-1.25.18-1.73.39a18.58,18.58,0,0,1-2.24,0l-1.11,0h-.93c0-.12.09-.24.31-.36s.57-.23.62-.35a4.47,4.47,0,0,1-1.49-.41,2.15,2.15,0,0,0-1.32-.13,3.26,3.26,0,0,0-2.48-.86c.47.18,1.1.2,1.05.51a3.6,3.6,0,0,1-1.66,0c-.38.15.23.32-.42.47.71,0,2,.44,2.2,0,.09.19.26.38-.25.56s-.4-.46-1.29,0c-.8-.18.49-.31-.31-.49.1.49-.9.45-1.68.21-.48.29.21.38.7.33-.32.15-.62.06-.94.22-.2-.19-1.26-.4-.86-.58-.32-.05-1.61.42-1.27-.11-.59-.16-1,.7-1.88.45-.18-.14.33-.26.59-.39-.91-.07-2.55-.55-2.93-.07-.28.07-1.56-.1-.7-.33-1.61,0-3.75.5-4.38,1.44a4.67,4.67,0,0,0-1.29,0c-.7-.29.69-.52-.28-.81.9-.3.88-.09,1.46,0,.89-.25,1.09-.52.46-.8-.18.08.07.16.16.25a2.27,2.27,0,0,1-1.66,0c-.4-.23.57,0,.77-.3-.45-.35-1,.2-1.45-.2-.4.78-2.37.19-3.64-.24-.63.28-1.17.83.08.89-.26-.42.48-.26,1.12-.13.17.14-.32.14-.56.06.27.37,2.18.15,3.08.31-3,.5-7.45,0-11,.25-.17-.11.2-.21.4-.31a1.71,1.71,0,0,0-1.48.13c-.25-.52-.73-.09-1.43-.36-.52-.19,1.24-.35.24-.55-.71.51-1.06.19-2.39,0a1.88,1.88,0,0,1-2.21.12c-.65.36-1.23.08-1.89.44-1.84-1.15-5.4-.38-8.7-1,.05.36-.81.64-1.12.14-.76.17-.57.36-.61.55a1.63,1.63,0,0,1-.73,0c.11-.24-.09-.48.63-.71-1-.34-.33.67-1.48.13-.35.57-.65.36-1.7.37-.35-.2.11-.38.61-.55-1.79.4-4.44,0-5.79.92-.88.16-.86-.1-1.45-.19-.48-.25.52-.47-.1-.73-.69.2-.57.42-.44.64-.89-.11-.68.16-1.5.29-.5-.44.73-1,1.57-.94-.36-.13-.17-.24,0-.16a6.22,6.22,0,0,0-4.94-.18c-.64-.23.89-.41.07-.64-.68.44-2.45-.12-3.66-.08-.37.12-.19.26-.59.39-.05-.14.26-.27-.14-.41-.67,0-.23.11-.77.31-.14-.11.26-.21,0-.33-.75-.35-1.58-.08-1.5.3a.65.65,0,0,0-.54-.1c-.17-.11.21-.21.4-.31-1.7-.05-4.32-.7-5.49-.12-1.62-.47-1.24.12-2.18-.2-1,.61-1.57.49-2.85.82a6.16,6.16,0,0,0,1.26.27c-.58.27-1.08-.17-1.66,0-.17-.11.21-.21.4-.31-1.15-.06-2.28-.41-3.43-.47-.18-.12.2-.22.4-.32a3.47,3.47,0,0,0-1.66,0c-.67.86-4.22-.43-6.07.11,2.12.17,4.25.28,6.37.54a6.75,6.75,0,0,1-2.2,0c-.32.38,1,.11,1.25.27l-1.15.46c-.33-.14-.13-.27-.5-.42-1.56.18-1.55.93-3.37.58-.13-.29,1.24-.32,1.71-.53,0-.19-.46-.39-.12-.57a3.71,3.71,0,0,1-2.83.67c-.26-.17-.06-.33.42-.48-.73-.3-1.5.66-2.62.43-.74-.23.56-.42-.29-.65-.2.05-.12.1,0,.16,0,.22-1,0-.79.47-.31-.08-1.53-.21-1.3.21-.42-.07-.88.12-1.28-.11,0-.29,1.29-.56,1-.86-.47.09-1.13.2-1.7.37-.49-.18,0-.33-.68-.5-1.11.09-2.19-.05-3.3-.07-.35-.2.71-.09,1-.39-1.39-.27-1.8.83-3.14.18-.38.07-.79.49-1.14.3-.45.22.56,0,.7.34l-.58.22c-1.06-.32-2.2,0-3.26-.39,0-.41,1.51-.43,2,0a3.78,3.78,0,0,1,1.51-.29c-.6,0-2-.61-2.94-.07-.72-.26.25-.48-.47-.73-.75.56-2.92.47-4.64.46-.39-.3.58-.08.77-.3-.78,0-.4-.28-1-.51-1,.22-2,0-3,.26-1.3-.52-1.34.08-3.37.57a9.57,9.57,0,0,1,2.39,0c.39-.1.23-.21,0-.32a3,3,0,0,1,1.46,0c.42.15-.59.21-.75.15.22.26,2,1,2.88.54.55.49,2.6.5,3.82.33.41.24.17.43.91.1a14.07,14.07,0,0,0,5.63.52c0,.55,2,.16,1.39.67a7,7,0,0,1,1.68-.2c-.29-.16-.6-.09-.89-.26.38-.07.74-.07,1.12-.14.13.14.11.27-.23.4.46.26,1,.08,1.43.35.36-.1.17-.21.4-.31.41.24.81.44,1.28.1.29.13.57.36.89.26.49.18-1,.31-.06.49.78-.61,3.92-.27,4.57.18.65.2.25-.25.77-.31.19,0,.36,0,.56-.07.67.2.18.38.85.58,1.25-.48,3.57,0,5.31.2.46-.3.87-.2,1.32-.38-.89-.37-.75.28-1.66,0,.47-.25.34-.18-.11-.57a2.25,2.25,0,0,1,2.54.22c-.52.28-.94-.39-1.47,0,.82,0,1.16.5.48.74,1.16,0,2.29.28,3.45.31-.38.44-.2.26.68.5a2.75,2.75,0,0,1-1.8-.36c-.34.15.44.33,0,.48a19,19,0,0,1,2,.13c.48-.21-.2-.44-.65-.66a12.31,12.31,0,0,0,3.13-.18c.17-.21-.19-.43.08-.64,1.1-.1,0,.42.85.58.17.16-.32.07-.58.23,1,.58,3.48.27,4.68.91,1.52-.49,2.95-.11,4.41-.07.46.42-1,.34-1.19.78,1.09.34,1.43-.51,1.63.28.35-.26.38-.53.08-.81a12.64,12.64,0,0,1,3.84.17c.45-.62,1.69-.36,2.6-.27.17.11-.2.21-.4.31s-.6-.15-.89-.26c-.25.08-.3.16-.21.24l-.38.15c.65.22,1.37-.24,2,.29-.45.2-.85,0-1.29,0-.26.43,1.06.23,1.43.35-1.26.65,1.41.15,2.34.45,0-.25.23-.71,1-.7-.53.4.44.42.46.89a.74.74,0,0,1,.56-.06c-.3-.46.93-.37,1.19-.78a6.18,6.18,0,0,0,3.1.14c.64.23,0,.43-.07.65a15.85,15.85,0,0,1,2.51.53l.77-.3-.7-.34c-.72.44-1.34-.1-2-.12.9-.33,1.7.19,2.59-.11-.12,1,1.95.46,3.38,1-.54-.12-1.11.1-1.64-.12-.09.41,1.43.29,2,.29.18-.21.14-.43.44-.64,1-.1.46.43.85.59a.73.73,0,0,1,.73,0c.08-.5.94-.48,1.83,0-.5-.54.29-.17,1.17-.62,1,.47-1.34.36-.08.8.36-.58,1-.41,1.55-.77.87.4-1.08.36-.81.63a2.28,2.28,0,0,0,1.7-.37c.8.36-.63.18-.42.48,1.55.6,2.1-.06,3.7-.25.41.2.18.38.85.58.84-.35,1.59,0,2.41-.18.21.21-.19.42-.07.64-.27.14-.5,0-.75.14-.6-.17.06-.32,0-.48a11.13,11.13,0,0,1-2.77.18,6.06,6.06,0,0,0,2.35.29c.6.24-1,0-.4.32-.84-.17-1.7-.11-2.55-.22-.17.11.22.22,0,.32-.71.16-.19-.31-.88-.42a1.34,1.34,0,0,1-.92.06c-.16,1-1.76-.26-2.79.35-.64-.23.2-.49-.68-.5-.56.31.11.65-.47,1,.46.25,1,0,1.45.19.19-.1-.16-.22-.34-.33a3.25,3.25,0,0,1,1.83,0c.09.29-.59.12-.78.46a9.8,9.8,0,0,0-2.22.12c-.64-.23.21-.49-.67-.5-1.29,1.15-5.21.23-7.56.24-.1-.21.76-.41.44-.63,2.18.16,4.35.49,6.56.46.36-.28-.8-.31-1.1,0-.54-.29-1.29-.23-.49-.58-.62,0-1.24.12-1.85.12-.14-.21.56-.41-.3-.65-.62.45-.79.3-1.67.21-.68-.2.19-.37-.49-.58a9.14,9.14,0,0,0-3.71.41c0-.14-.37-.28-.14-.41.54-.21,0,.41.73,0-1.06-.34-2.2-.08-3.26-.39l-1.35.53c-.34-.22-.35-.44-1-.66-.79.53.43.53.65.82-.71.27-1.28-.59-2-.13-.83-.34.8-.63-.26-1-.18.08.07.16.16.24a14.82,14.82,0,0,1-4.21-.17c-.77.34.38.71,1,.67-.69.14-1.44.89-2.08.52-.29-.31.77-.08.6-.39-.33-.37-.75.18-1.08-.18-.45.3,0,.42-1,.54-.42-.17-.4-.33.05-.48-1-.35-1,.62-1.87.28-.25-.25,1.05-.46.27-.72-.71.17-.52.37-1,.54a1.63,1.63,0,0,1-.73,0c0-.26,1-.25.8-.63-.93,0-.7-.23-1.59-.6a21.92,21.92,0,0,0-4.77.06c1.09-.56-2.92-.39-4.16-.65.12-.43,1.7.1,2.43-.35-1.45-.43-2.83.38-3.84-.17-.19.11.16.22.33.33-.53.38-1,0-1.5.3-1.3-.83-3.18-.12-4-.73-1.71.33-2.67-.13-4.08.39.67,0,.2.12.69.34-2.07.48-2.56-.44-2.62-1.1-.5.31-.15.64-.48,1a18.62,18.62,0,0,1-2.35-.29c-.26-.22,1-.17,1.32-.37.18.19-2.75-.35-3.28-.23-.42-.09-.37-.52,0-.33,0-.38-.73,0-1.1,0-.2.1.16.22.33.33-1.5,0-3.73-1-5.81-.61l-.87-.42c-.38.15-.72-.13-1.12.14-1.49-.89-3.17-.07-4.67-.91a8.82,8.82,0,0,1-4.9-.5c1-.24,1.1-.42,1.9-.61-1.83,0-3.73.51-4.59,0,0,.68-1.35,1-.93,1.75-.9-.11-1.79-.34-2.7-.46,0,.72,3.33.33,3.17,1.19-.38.18-.7-.26-1.06-.34-.19.5-1.49,0-2.25.43.14-.26.26-.53-.64-.82,0,.4-.55.47-1.37.7-.54-.32-1.54-.74-1.62-.28-.64-.22-.26-.49-1-.5-.35-.31.09-.21.59-.39a6.41,6.41,0,0,0-2.39,0c-.61-.28.72-.52.09-.81-.34.12-.66.76-1.33.38-.13.18-.6.36.12.57-1,.16-.88.09-1.34.53-.4.27-.69-.45-1.08-.18-.87.29.43.33.68.49-.5.06-1-.18-1.47,0-.35-.22.81-.41.07-.64-.25.34-1.31.13-.9-.1-1.16.61-3,.27-4.56-.34-.07.19-.54.37-.61.55.76.18.41.19,1.05.51.49-.12.11-.27-.14-.41a21.73,21.73,0,0,1,4.52.66c-1.32.26-2.53-.41-3.84-.16a12.42,12.42,0,0,1,2,.44c-.76.18-1.44-.26-2.24.28-.35-.22.35-.42-.29-.65-.32.15-.62.06-.94.22-.47-.14-.06-.27.22-.4-.34-.16-.74.1-1.08-.18-.22.46-1.39.15-1.53.61-1-.29.07-.53-.65-.82a3.63,3.63,0,0,1-2.53-.37c-1.16.27-1.1-.24-2.2,0-.39-.3.58-.08.77-.31-1-.36-2.07,0-3.08-.31-.43.25-.51.33-.63.72-.61-.1-1.79,0-1.89.44-.8-.18.49-.31-.31-.49-.54-.11-1.12.18-1.64-.12-.72.2-.27.4-1,.39-.58-.28.91-.52.82-.79.45-.23.8.54,1.27.11-.14-.38-1.59-.36-2.37-.14-.65-.17-.18-.32-.68-.49-1,.26-2.87.54-3.14.17-.31-.09-.35.13-.21.24a3,3,0,0,1-2-.29c-.46.3-.86.08-1.32.38.82-.25,1.52.59,2.37.13.5.41-.29.56,1,.83-1.11.52-1.37-.07-1.64-.12-.77.38.7.31.66.66a.87.87,0,0,1,1.1,0c.51-.3.92-.08,1-.39-.59-.19-1.12,0-.87-.42.44-.13.82.36,1.27.11.29.32-.54.41.49.57-.33-.56.81,0,1.46,0,.11.1-.13.57-.59.39.51,0,1.64.56,2.53.38.62.71,1.8.27,2.28.93,1-.12.87-.47,1.89-.44.18.14-.34.26-.6.39.74.53,1.57.24,2.34.45.3-.2.13-.29-.33-.33.55-.38,1.3,0,1.33-.37a.51.51,0,0,0,.69.34c.34.31-.09.21-.59.39.94.31,2-.06,2.88.54.42-.84,1.32.42,2.23-.27-.24.5.76.21.85.58a3,3,0,0,1-2-.28c-.67.66-2.34.08-3.46-.32-.09.24-.18.48-1,.71,1.84-.74,5.14,1.24,7-.18a20,20,0,0,1,3.46.32c.3-.21.13-.3-.33-.33l1.15-.46a2.13,2.13,0,0,1,1.08.18c-.58.25-1.1,0-1.69.37.52.22,1.08.21,1.6.44l.77-.31a4,4,0,0,1,.91.1c.35.2-.11.37-.62.55,1.36.17.81-.76,2.26-.43.16-.14.17-.27-.14-.41a2.28,2.28,0,0,1,1.11-.14c-.79.69,2,.94,3,1.27-1.09.18-3.74-.36-3.69.25-1.1,0-2.17-.32-3.28-.23-.16.45,1.31.16,1.79.36-.89.2-.87,0-1.52.45-.38-.71-1.06-.1-1.37-.84-1,.28-.56.58-.28.88-.72.13-.69-.37-1-.5-.45.18-.87.08-1.33.37-.65-.17-.18-.32-.68-.5-.85.38-.47,0-1.27-.1-.88.23-1.71,0-2.6.26-.73-.2.14-.37-.12-.56.91-.12,2.52.3,2.43-.35a6.29,6.29,0,0,0-1.51.29c0-.11-.08-.22-.33-.33-.83.34-1,.36-1.65,0-1.08.28.06.59-1,.87A2.77,2.77,0,0,0,95,103c-.63-.23,0-.43.07-.65-.44-.39-1,0-1.43-.35-.38.1-.22.21,0,.32-1.12.17-2.14-.6-3.32.09-2-.32-3.51,0-5.07-.59-.66.39-1.23.08-1.85.12-.26.39,0,.48-.63.71a5.44,5.44,0,0,1,1.39.68c.45-.39.1-.29.81-.63.81-.09,1.56.21,2.41-.19.43.31-.85.57-1,.87.42.21,1.82,0,1.61.43,1.2.15,2.49-.4,3.64.24-.76.23-1.48.07-2.23.27a2.84,2.84,0,0,1,1.43.36c.23-.34.4-.33.73,0,1.47-.54,2.78.36,4.2.17.72.18-.12.32-.41.48.45.3,1,0,1.44.19a2,2,0,0,0-1.18-.91c0-.14.08-.27.22-.4a9,9,0,0,1,1.28.11c.19.16-.45.31.31.49.48-.13.39-.26.6-.39s.47.11.73,0c.41.36-.41.18-.42.48-.57.2-1.07-.31-1.66,0,5.64.48,11.32.57,16.94,1.25.44-.66,2.24-.27,2.55.22.41-.34-.14-.7.29-1,1.07-.15.92.5,2,.28.17.11-.21.21-.41.31.91.12,1.87-.24,2.76,0-1.18.85,2.14.53,3.54,1.2.75-.14,0-.32-.31-.48a8.56,8.56,0,0,1,2.16.36c.24-.13-.46-.28-.14-.4a2,2,0,0,1,1.08.18c.08-.16.29-.31.79-.47.83-.23.52.44,1.46,0,.26.16.07.32-.42.47,2.18.29,1.81.52,4.56.34.12.14.11.27-.23.4,1.76-.44,3.42.06,5.16-.22.07.11.15.22,0,.33a4.91,4.91,0,0,0,2.08-.52c.57.17.55.33,0,.48,2.22-.15,4.32.8,6.62,0,.67.2-.2.37.48.57-.38.15-.72-.13-1.12.14,1.73-.1,3.93-.53,6.07-.11.32-.35-1.41-.28-.29-.65a5.17,5.17,0,0,0,2.51.53c.6-.5-.76,0-1.26-.26a5.18,5.18,0,0,1,2.05-.2,1.34,1.34,0,0,1-.46.79c1.86-.08,3.26-.65,5.36-.29.14.11-.27.21,0,.33s.61.08.89.26c.7-.3.36-.32,1.16-.46,0,.16.21.32.67.49a15.92,15.92,0,0,1,2.76,0c.41.22-.6.27-.75.15.65.51,2.25,0,2.81-.51.93.24.06.43-.44.64,1.29,0,2.64-.61,3.89-.32.42.13-.62.47-.75.15.19.35.88.49,1.78.52-.28,0-1.11.08-.4.31-.38.08-.71-.2-1.12.14.58.31,1.22,0,1.82.2-.22-.22.32-.62,1-.39.21-.15-.3-.07-.53-.25a6.19,6.19,0,0,0,2.28-.6c.85.24-.45.42.29.66.56-.25,1.5-.24,1.54-.62a25.37,25.37,0,0,0,4.38.26c0-.19-.16-.38.61-.55.54.47-.53.69,1,.83-.53.31-1,.07-1.49.12,0,.42,1.71,0,2.38.14.08-.14-.21-.28.22-.4.58.18,1,.07,1.42.51.71-.17.26-.37,1-.54.55,0,1,.73,2,.12.5.17,0,.32.68.5a2.12,2.12,0,0,1-1.29.05c2.66.86,7.08.18,10.41.46,0,.22-.33.43-.8.63.66.12,1.36-.13,2,.13.51-.18.34-.37.25-.56,1.61,0,4.53.84,6.26-.19.51.38-.66.27-.61.55a22.35,22.35,0,0,1,2.37.13c.19-.13,0-.27.23-.4,1.22-.13,3.16.84,3.84.16.41.2.18.39.85.59.56-.09,1.15-.46,1.66-.05.93-.82,3.13.26,4.63-.3-.16.16.64.33.31.49a3.52,3.52,0,0,1,2.74.14,2.58,2.58,0,0,1,1.13-.3c0,.11.08.21.33.33.2-.26,1.19-.23.74,0a5.33,5.33,0,0,1,2.56.06c-.2-.35.29-.37,1-.38.17.11-.2.21-.4.31.9.14,1.83,0,2.74.14-.76.37-.95-.1-1.33.37a4.52,4.52,0,0,0,1.64.12c.17.14-.34.26-.59.39-.68,0-1.29-.56-2-.12.82-.09.41.55,1.24.42.19.37-.51.39-1.15.46-.31-.19.16-.37.24-.56-.69-.23-1,.17-1.33.38a3.85,3.85,0,0,1-1.81-.2c1.35.11,1.06-.49,2.06-.36.37-.29-1.16-.16,0-.48.73-.25-.2.5.52.25,1-.32.14-.19-.31-.49a1.68,1.68,0,0,1,.74,0c-.77-.32-3.2.1-4.58-.18.34.47-.7.08-.78.47a10.55,10.55,0,0,0,2.6-.27c.33,1.08-2.64.68-3.6,1-1.31-.43,0-.81-.78-1.23-.11.53-1.2-.17-1.87.29.58-.07,2.18.14,1.59.59-1-.55-1,.27-2.37-.13-.73-.25.25-.48-.47-.73l-1,.38c.26.11.52.23.33.33-1.76.36-3.45.17-5.19.37.51.4,1.09.12,1.63.28-1.06.25-2.92.43-3.28-.23a2.31,2.31,0,0,0,1.5-.29c.24-.3-.87-.12-.51-.42-1.16.06-2.2.69-2.93-.06-.46.32-.87.11-1.29,0,0,.14-.42.26-.23.4-1.31-.3-3.69.23-4.36-.41-.8,0-1.6.14-2.41.19,0-.14.09-.27.23-.4-.67-.18-.51.3-1,.38-.71-.28-.25-.54.09-.8-.82-.16-1.87,0-2.14-.53-.28.32.39.65-.47,1,1.12.26.49-.7,1.86-.29.21.33-.1.51-.8.63-1.43.12-2.74-.69-4.17-.49-.48-.45.63-.25,1.15-.46a3.37,3.37,0,0,0-1.85.12.49.49,0,0,0,.33.33c-.49.08-.65-.2-.75.15-1-.35-2.13.47-3.09-.31-.15.36-1.7.39-1.83,0-.67.68-2.4.61-3.52.33-.36.1-.17.21-.41.31-.92-.29-2-.07-1.95-.6l-1.34.53c-1.22-.29.43-.53-.28-.81a3.76,3.76,0,0,1-2.39,0c-.14.26-.93.52-1.19.78-.47-.33.95-.62.11-1-.09.78-2.43.69-3.53.32-.95.14-.88.63-1.88.45.07-.29.8-.6-.31-.49-.17-.25.36-.48,1-.71a.37.37,0,0,0-.37,0l-.34-.17c-.61.2-.2.42-.81.62-1,.22-.77-.42-1.76-.68-.7.3-1.33-.16-2,0a2.64,2.64,0,0,0,2.18.21c0,.18.4.38.85.58-.78-.1-.72.27-1.64-.12-.84.15.42.34-.42.48-.75-.41-2.48-.35-3.8-.49-.25.21,1,.28,1.45.2.18.63-1.61.51-2.43.35-.5-.4,1.29,0,.77-.31-.88-.43-.75.27-1.66,0,1.15-.75-2.81,0-4-.73a21.47,21.47,0,0,1-2.84.82c.17-.7-2.86-.14-3.32.09-.26-.11-.52-.22-.33-.33-.32.25-1,0-1.86.29-.53-.6-1.28,0-2.59.1-.25-.19.23-.37-.48-.57-2.33.38-3.52,0-5.9.2-.25-.22.24-.4-.51-.42-.1.65-1.29.24-1.81-.2.34.5-.9.83-1.9.61-.28-.41,1.15,0,1-.39-.29-.16-.61-.08-.89-.26-.3.21.14.41-.6.39-.2-.14.52-.25.23-.39-1.14-.24-1.54,0-1.5.29-.93.12.05-.51-.87-.43.08.4-.73.52-1.54.62-.28-.49-.57,0-1.24-.43,0,.34-1,.29-1.48.13-.05-.2.39-.09.23-.4-.34.5-3.14-.12-2.83.66-.65-.24-1.4.47-2,.2-.49-.36.63-.23,1.17-.62-.66-.14-1.35,0-2-.12-.4,1-2.85.47-3.56.65.09-.31,1-.41,1.35-.54.36.12.18.22,0,.32.79.2.6-.22,1.5-.29a3.86,3.86,0,0,1-2.49-.69c-.77.17,0,.37-.25.56-1-.61-5.36-.08-6.94-.31-.24,0-1.55.28-1,.54-1,.34-1.77-.38-1.87.28-.52-.22.11-.43.08-.64.31-.08.59.15.89.26.61-.31-.39-.52.8-.63a7.85,7.85,0,0,0-2.25.44.52.52,0,0,0-.33-.33c-.64.26.36.2.12.56-.57.14-1.09-.16-1.68.21a71,71,0,0,0,8.38.66c.8.18-.49.31.31.49.69,0,.5-.18,1-.38.7.34-.52.63-1.21.94-1.55,0-3.23-.82-5.28-.35-.55,0-1.07-.34-1.63-.28.49.37.34.32-.74.15-.66.14,0,.32-.42.47-1.32-.64-1.69-.18-2.92-.22-.5-.18,0-.32-.68-.5,0,.35-.55.58-1.32.37-.5-.17,1-.3,0-.48a.76.76,0,0,1-.73,0c0,.13-.25.26-.6.39a17.52,17.52,0,0,1-3.59-.72c-.38.67-1.2-.2-2,.19-.35-.31.71-.08,1-.38a6.77,6.77,0,0,1-2-.12c-.37.06-.79.49-1.13.29.19.43,0,.38-1,.71,1.41-.06,2,.46,3.11.15.64.37-.48.27.12.56.77-.22.84-.46.63-.71a6.74,6.74,0,0,0,1.31-.21c0,.53,1.19.29,1.81.2.44.35-.81.28-1,.7a1.25,1.25,0,0,0,1.14-.3,3.31,3.31,0,0,0,1.78.52c0-.21.66-.41,1.17-.62.2.28-.1.54.64.82.52-.22,1,0,1.47,0-.22.19.21.39.12.57a34.43,34.43,0,0,1,5.84.29c1.16-.49,2.18.24,3.32-.09,1.84.87,4.75-.4,6,.69.4-.29.74-.08,1.14-.3a5,5,0,0,0,1.41.51c-.77.18-1.35-.16-1.7.37.36-.43-.42-.21-1.06-.34-.48.33.22.25.7.33a5.81,5.81,0,0,1-2.58.11c-.32-.17.85-.25,1.11-.14-.26-.42-2.19,0-3.1-.15.39.32.86,0,1.25.27a24.21,24.21,0,0,0-3.89.32c-.52-.2,1.24-.35.25-.56l-.77.31a11.26,11.26,0,0,0-4.61.14c1.1-.42-.66-.33-1.6-.43-.13.2-.61.38.14.4-1.33.59-1.44-.35-2.58.11-.5-.25-.21-.49-.11-.73a1.63,1.63,0,0,0-1.35.54c-.77.18-2.14-.57-2.38,0-.33,0-1.54-.26-1.24-.43a8.72,8.72,0,0,1-4.42.06,3.69,3.69,0,0,0,1.72-.52c-.59-.2-1.19-.33-1.78-.52-.55.08.5.58-.23.39-.38.42.83,0,1.1,0,.11.53-2.08.84-3,.26-1.21-.06-2.55,1-3.72.4l-.76.31c-.6-.18.06-.32,0-.49-.72-.14-1.52.47-2.22.12-.35-.31.73-.2,1-.38-2.07.17-4,.45-5.3-.2a3.57,3.57,0,0,0-1.87.29c.42.14.51.27.14.4-.69-.41-2.73.08-4-.41a1.7,1.7,0,0,1,1.31-.21,12.08,12.08,0,0,0-3.26-.39c-.89.38.63,0,.87.42-.65.25-1.23,0-1.87.28.13.14.11.27-.23.4.46.24.67,0,.7.34a2,2,0,0,0-.75.14c-.87-.63-1.16-.47-2.3-.77.65-.39,1.19.26,1.85-.13-.4-.31-.85-.11-1.24-.42.35.33-1.37.55-2.08.52-.17-.12.21-.22.4-.32-.44-.4-1,0-1.43-.35-.32.15.48.33.32.49-1.32.26-2.55-.18-3.86,0,0,.42.94,0,1.45.19.1.08,0,.16.15.25-.91-.18-1.2.13-2.23.27,0,.46.91.33,1.29,0,.83.23-.86.47.31.49C65.92,116.44,64.64,116.5,65.51,116.91Zm69.36,5.43c.71-.32,1.34,0,2,.12A3.11,3.11,0,0,1,134.87,122.34Zm55.73,4.08c-.6.35-1.84,0-1,.55a7.88,7.88,0,0,1-3.1-.15c.54-.32.63-.11,1.17-.62.29.11.57.34.88.26s-.12-.22,0-.32C189.27,126.3,190,125.88,190.6,126.42ZM38.25,157.3c-.23-.66-.56-.52-.21-1.31C38.28,156,38.52,156.82,38.25,157.3Zm-8.71.5a5.49,5.49,0,0,0-.75-2.28c.35-.39.16-.84-.06-1.29a2.63,2.63,0,0,1,.83-1c-.3-1-.64-.34-1-.1.2-1.49,1-1.31,1.38-.4-.61,1.22.46,2.62.16,3.87-.36.63-.17-.72-.47-.42C29.84,156.76,29.85,157.82,29.54,157.8Zm85.51,55.13c.7-.28,1.33.1,2,0A2.77,2.77,0,0,1,115.05,212.93Zm57.73-.7c.3.28,1.54.23,1.22.58C173.53,212.44,172.18,212.72,172.78,212.23Zm43.62.76c-.48-.08-1,.21-1.46-.19C215.36,212.56,216.65,212.67,216.4,213ZM136.23,95.05a6.26,6.26,0,0,1-2.35-.29C134.55,94.81,136.2,94.65,136.23,95.05Zm15,5.56c-.09.36-3.33.2-2.72-.3C149.37,100.73,150.36,100.15,151.22,100.61Zm-64.35-2.5c.2-.13.12-.27.59-.39.29.18.6.1.89.26A1.48,1.48,0,0,1,86.87,98.11Zm84.19,14.12a37.6,37.6,0,0,1-3.84-.16A9,9,0,0,1,171.06,112.23Zm-35.37-.67c-.55-.06-2.07,0-2-.29C134.26,111.27,135.78,111.15,135.69,111.56Zm-18.07-1c0,.12-.69.67-1.13.3C116.17,110.69,117.37,110.41,117.62,110.61Zm-45.74,5.15c-.37-.12-.21.11-.58.23-.49-.53-1.12.25-1.62-.28C70.35,115.29,71.9,115.48,71.88,115.76Zm25.61,2.56c-.5,0-1,.27-1.47,0A1.47,1.47,0,0,1,97.49,118.32Zm25,3.11c-.09.31-1.25.29-1.83,0A2.51,2.51,0,0,1,122.48,121.43Zm5.31.19c-.65.19-2.2,0-2.17-.37C126.33,121.48,127.1,121.17,127.79,121.62ZM91.71,104.18a29.77,29.77,0,0,1,3.66.07A6.29,6.29,0,0,1,91.71,104.18Zm51.59,23.25c-.13.36-1.39.33-2,0A2.22,2.22,0,0,1,143.3,127.43Zm-23.53-11.38c-.61,0-1.25.23-1.83,0C118.47,115.79,119.92,115.64,119.77,116.05Zm-27.9-13.32c-.25-.25-1.44.08-1.07-.35C91.29,102.47,92.45,102.27,91.87,102.73Zm1.31-.22c.27.47.56.12,1.25.27-.31.13.38.28.14.41-.89-.06-.62-.36-1.46,0l-.53-.26C92.79,102.77,92.7,102.64,93.18,102.51Zm3.36,1.12c-.62,0-1.26.32-1.83,0A1.74,1.74,0,0,1,96.54,103.63Zm22.56,8.54a2.28,2.28,0,0,1,1.11-.14c-.84.25-.37,1-1.55.78C118.38,112.42,119.73,112.44,119.1,112.17Zm-16.85-8.66-.78.31-.52-.25C101.42,103.25,101.82,103.46,102.25,103.51ZM91.61,98.37c-.24-.56-.74,0-1.44-.19C90.1,97.66,92.86,97.94,91.61,98.37Zm31.54,13.73c1.15.36,2.66-.38,3.26.39.14-.48,1.41-.45,2-.2-1.77.07-1.52.65-3.23,1-.64-.67-.67.06-1-.51-.94.1-2.86.42-3.13,0,.16,0,1.16,0,.75-.15a3.72,3.72,0,0,1-1.81-.2,1.44,1.44,0,0,1,1.45.19C122,112.39,123.08,112.53,123.15,112.1Zm19.08,10.07c-.07.4-1.11.28-1.68.21C140.61,122.05,141.67,122,142.23,122.17Zm-23-11.28.7.33a1.37,1.37,0,0,1-1.12.14C119.66,111.22,118.4,111,119.24,110.89ZM98,99.23c-.6.35-1.06-.39-1.66,0-.56-.24.11-.57-.86-.58C96.76,98.15,96.86,99.14,98,99.23Zm10.3,4.82c-.58.23-1.17.55-1.68.2C107.12,104.24,107.73,103.73,108.25,104.05Zm-7-3.22c-.61-.47,1.28-1,2.09-.68,0,.31-.56.51-1,.55C102.39,100.28,101.66,100.53,101.26,100.83Zm33.1,12.79c0-.41-.71-.16-1.11.14-.49,0-.67-.12-.7-.33-1.33.36-2.55-.24-3.87.15-.57-.2.12-.7-.9-.26-.61-.25-.57-.89.44-.63-.21.1-.4.2,0,.32.23-.91,2.34-.59,3.58-.81l.87.42c.73,0,1.52-.48,2.21-.11-.39.5-2.08.56-3,.42.17.11-.11.13-.39.15a16.38,16.38,0,0,0,1.8.36,3.24,3.24,0,0,1,2.79-.34C134.6,113.06,135,113.42,134.36,113.62Zm-24.81-9.79c.35-.15-.44-.33.06-.48.32.37.75-.19,1.08.18-.58.26-.45.53-1.19.78l-.52-.25Zm52.19,24.56c.25.25-1,.55-1.31.21C160.87,128.49,161.35,128,161.74,128.39Zm-8.21-5.5c-.48.54-2.38-.21-1.64-.11C152.43,122.87,153,122.57,153.53,122.89Zm-45.66-22.08-.77.31c-.18-.11-.53-.23-.33-.33C107.13,100.91,107.21,100.42,107.87,100.81Zm6.76,1.92c-.36.13-.27.26.14.41l-1,.38a15.88,15.88,0,0,1-1.6-.44C113,103.05,113.83,102.82,114.63,102.73Zm-6.38-2.07c.39-.23.26-.48.27-.72.35.17.74-.1,1.08.19-1.54.53,1.29.3.83.74-.71-.25-2.46.24-2.53-.38Zm9.56,3.26c-.24-.58-1.21,0-2-.28C116.36,102.93,118.39,103.32,117.81,103.92Zm1.45.2c.66.08.16.51.69.34.34-.19-.1-.38.25-.56l.7.33c-.29.13-.69.26-.23.4a1.66,1.66,0,0,1-1.31.21c.21-.1.4-.2,0-.32-.68.15-.25.32-.78.47C117.79,104.68,119,104.41,119.26,104.12Zm4.89,2.2a2.73,2.73,0,0,1-2.37-.13A4,4,0,0,1,124.15,106.32ZM111,100.64c.94-.18,1.8.35,2.74.14a4.88,4.88,0,0,1-2.41.19C111.53,100.86,111.27,100.75,111,100.64Zm28,12.2-.77.3a1.18,1.18,0,0,0-1.47,0l-.52-.25A7.76,7.76,0,0,1,139,112.84ZM115,101.37c-.53-.19-1.1,0-1.62-.28C113.82,100.81,115.17,101,115,101.37Zm47.67,22.2c-1,.2-1.94-.18-2.93-.06C160.1,123,161.74,123.37,162.64,123.57ZM111.19,99c-.1-.19.37-.37.61-.55a5.17,5.17,0,0,1,1.47,0c.17.25-.14.48-.27.72a5,5,0,0,1,2.62-.43c.72.58,1.45.51,2.67.79-.6.4-2.53,0-3.67-.08.31.14.3.27.14.4-1.09,0-1.4-.16-.87-.42-.85.08-3.5.31-4.17-.49C110.6,99.24,110.39,98.94,111.19,99Zm9.29,4c-.33.4-.67.61-1.69.36C120,103.42,119.26,102.93,120.48,103Zm-6.84-3a6,6,0,0,1,1.26.27C114.35,100.6,113.06,100.4,113.64,100.05Zm28,12.84a1.37,1.37,0,0,0,.93-.06l.87.42c1.27-.36,1.55,0,3-.26-.39.16.23.33-.42.48a3.66,3.66,0,0,0-2.2,0c.26.27.31.55-.46.8a6.69,6.69,0,0,1-1.6-.44c.58-.26,1.1,0,1.69-.37C143.11,113.08,141.69,113.23,141.6,112.89Zm.51.42a2,2,0,0,1-1.82-.21A4.15,4.15,0,0,1,142.11,113.31ZM118.34,100.8c.8.17-.49.31.31.48a1.87,1.87,0,0,1-1.47,0C117.19,101,117.85,100.78,118.34,100.8Zm51.94,25.11a1.84,1.84,0,0,1-1.49.13A2.16,2.16,0,0,1,170.28,125.91Zm-53-25.78c.37.14.17.27.5.41a1.21,1.21,0,0,1-1.27-.11ZM133,106.5c.31.14.49.28.5.42a4.15,4.15,0,0,1-2.37-.13C131.73,106.43,132.29,106.89,133,106.5Zm-12.61-5.58c1,.33,2-.09,2.92.22-1-.09-2,.48-3,.1C120.56,101.14,120.18,101,120.34,100.92Zm4.2,1.86.77-.31c.21.2.63.39.49.58C125.41,102.73,124.94,103.1,124.54,102.78Zm-5-2.76c.26-.21-1.16-.46-.3-.66.91,0,0,.34.85.59l-1,.38c-.19-.2-1.28-.13-.87-.42A7.9,7.9,0,0,1,119.53,100Zm28.81,13.42c-.78-.2-.73.32-1.66,0C147.16,113.16,148.55,113,148.34,113.44Zm-18.88-10.31a8,8,0,0,1-2,0A3,3,0,0,1,129.46,103.13Zm48.65,23.35c-.44.11-.89.3-1.29,0C176.84,126.22,177.64,126.11,178.11,126.48Zm-43.33-21.63a7.47,7.47,0,0,1-2-.28C133.39,104.27,134.86,104.58,134.78,104.85Zm17.59,8.67a15.37,15.37,0,0,1,2.54.22C154.11,114.07,151.91,114.12,152.37,113.52ZM126.89,98.16c-.77.28.07.09.33.33-.46.32-.83-.18-1.29.05.56.46,1.19.29,1.78.52.14.15.77.7-.24.56.41-.3-.69-.11-.88-.42-.78.47-1.45-.11-2.21.11a2.46,2.46,0,0,0-1.78-.52c-.31.13.37.28.14.41-1.58-.48-.62-.79.16-1.45.4.14.08.27.14.41.32-.13.59.19.9.1-.32-.14-.5-.28-.5-.42.69-.24,1.15,0,1-.38a1.71,1.71,0,0,1,1.25.27c-.26.16-.75.07-.57.23A10,10,0,0,1,126.89,98.16Zm5.19,2.85c0-.3.64-.19,1.14-.3.27.48,1.35.17,2.16.37-.89.46.79,0,1.05.5a23.21,23.21,0,0,1-2.37-.13c-1.48.44-1.18,1.37-2.69,1.07C132.45,102.26,133.8,101.32,132.08,101Zm52.31,25.12c.14.19-1,.35-.25.56,1-.22.56-.47,1-.71.28.18.6.1.89.26-.62.6-1.36.72-2,1.25a7.47,7.47,0,0,0-2.85-.86A7.75,7.75,0,0,1,184.39,126.13Zm-27.63-12.51a1.75,1.75,0,0,1-1.67.2A10.86,10.86,0,0,1,156.76,113.62Zm-34-16.44c-.35.16.44.34-.06.49C121.84,97.75,121.92,97,122.78,97.18Zm12.67,4.95-1.54.61c-.23-.11-.48,0-.71-.18C133.06,102.2,134.61,101.89,135.45,102.13Zm22.76,11.68c.46.2.91.12.5.41-.34-.16-.74.11-1.08-.18ZM146.29,107c1,.4-.78.6-1.33.37C145.42,107.11,145.83,107.33,146.29,107Zm-18-8.2c.36,0,1.07.37.48.58C128.31,99.21,127.89,99,128.29,98.83Zm31.07,14.52c-.1.05-.2.1,0,.16a1.43,1.43,0,0,1,.93-.06,2.83,2.83,0,0,1-1.85.12C158.74,113.47,159.07,113.26,159.36,113.35Zm-.38-1.54c-.58-.29-1.25.27-1.83,0C157.68,111.51,159.13,111.4,159,111.81Zm-36.2-18c-.37.34.74.17.56-.07.47.2.25.38.12.57-.81-.1-.66.12-1.83,0A1.74,1.74,0,0,1,122.78,93.8Zm74,33.08c-.52.28-1,0-1.46,0A1.33,1.33,0,0,1,196.79,126.88Zm-39.16-19.45a1.23,1.23,0,0,1-1.27-.1A1.23,1.23,0,0,1,157.63,107.43Zm15.53,7.34c.82.27-.25.69-.77.31C172.93,114.88,172.49,114.78,173.16,114.77ZM160.7,107.9c.84-.32,2.58-.17,2.72.3-.74-.47-1.59,0-2.39,0C161.37,108,160.53,108.19,160.7,107.9Zm45.39,19.58a4.74,4.74,0,0,1-2.37-.13C204.5,127.16,206,127,206.09,127.48Zm-67.15-32c-.37-.13-1.67-.19-1.42-.51C137.92,94.87,139.19,95.23,138.94,95.51Zm14.88,4.83c.57.42,1.2.25,1.78.52-.7.28-1.32-.19-2.06.36-.34-.23-.73,0-1.06-.34A4.4,4.4,0,0,0,153.82,100.34Zm25.33,11.74c.68.26.94.5.1.73-.56-.08-.7-.5-1.6-.44C178.18,112,178.63,112.36,179.15,112.08ZM152.06,96.44a4.08,4.08,0,0,1-2.07.36C150.7,96.53,151.42,96.12,152.06,96.44ZM167,104.17a1.26,1.26,0,0,1-1.27-.11A1.23,1.23,0,0,1,167,104.17ZM161.83,101a2.54,2.54,0,0,1-2,0A5.1,5.1,0,0,1,161.83,101Zm4.6,1.55c.94.34,2-.09,2.94.06-.67.57-1.79.31-3.16.33-.21.12-.12.29-.56.07C165.72,102.85,165.93,102.69,166.43,102.55Zm15.12,6.12a6.61,6.61,0,0,1-2.78.18A6.3,6.3,0,0,1,181.55,108.67ZM156.35,95.8a4.21,4.21,0,0,1-1.49.13c.38-.26,0-.53.46-.79C156.08,95.37,155.7,95.57,156.35,95.8Zm-3,.26c-.26-.41-.72-.24-1.41-.51,1.26,0,2.33-.92,3-.26C153.87,95.4,153.92,95.74,153.38,96.06Zm3.07.47c-.35-.34-1.7.08-1.43-.35a3.6,3.6,0,0,1,2,.28c-.37.13-.28.26.14.41a3.91,3.91,0,0,1-1.85.12C155.58,96.83,156.75,96.85,156.45,96.53Zm12.31,4.94c-.47-.18-1,.1-1.45-.2C167.72,101,169,101.23,168.76,101.47Zm-2.2,0c.56-.18-.53-.39.25-.56C167.59,101,167.25,101.56,166.56,101.42Zm4,1.62a4.53,4.53,0,0,1,1.5-.29,2.73,2.73,0,0,0,1.43.35c-.8.14-.45.16-1.15.46-.29-.32-.52-.45-1.27-.11C170.79,103.31,170.61,103.17,170.6,103Zm28,12.35c-.54.35-1.32.18-1.34.54l-.35-.17a.38.38,0,0,1-.37,0A2.3,2.3,0,0,1,198.61,115.39Zm22.55,11.92c.47.13.92-.06.89.27C221.53,127.9,220.64,127.55,221.16,127.31Zm-63-31.15a4,4,0,0,1-1.62-.27C157,95.47,158.32,96,158.14,96.16Zm36.75,16.42a4.2,4.2,0,0,1-2.2,0A4.1,4.1,0,0,1,194.89,112.58Zm-29.66-15.7c-.38-.11-.21.12-.58.23-.77-.09-.77-.57-1.82-.2-.1.27,1.07.22.49.57a1.63,1.63,0,0,1-1.41-.51C162.94,96.53,164.91,96.37,165.23,96.88Zm24.48,12.69c.78.13,1.63-.33,2.37.13a14.78,14.78,0,0,1-2.06.35C189.57,109.89,189.41,109.72,189.71,109.57ZM176,102.1a2.34,2.34,0,0,1,1.06.35C176.56,102.81,175.47,102.34,176,102.1ZM168,97a.65.65,0,0,0-.4.31A2.24,2.24,0,0,1,166.5,97,1.85,1.85,0,0,1,168,97Zm11.72,5.32c-.56,0-1.16.52-1.68.21A2.93,2.93,0,0,1,179.68,102.34Zm5.16,1.48c-.76.38-1-.09-1.33.38-.32-.14-.5-.28-.51-.42A2,2,0,0,1,184.84,103.82Zm-4-.24c.69.35,1.5-.29,2.17.2C182.34,104.23,180.79,104,180.83,103.58ZM170.42,98c-.53.4-1,0-1.45-.2C169.49,97.58,169.94,98,170.42,98Zm11.78,4.68c-.52.32-1,.08-1.48.13C180.76,102.48,181.7,102.42,182.2,102.72Zm2.28-.6c-1,.32-1.4.34-1.56.78-.66,0-.42-.28-.68-.5a4.8,4.8,0,0,1,1.5-.29c-.23-.09-.73-.06-.52-.25a3.66,3.66,0,0,1,2.34.45c-.21.13-.12.26-.6.39C184.24,102.49,184.72,102.32,184.48,102.12Zm2.65.95a10.67,10.67,0,0,1-3.69.08C183.69,102.39,185.9,102.78,187.13,103.07Zm-17-7.54a13.15,13.15,0,0,1-2.74-.14A5,5,0,0,1,170.15,95.53Zm5.23,2.53c-.09.21-.2.62-1,.38A.89.89,0,0,1,175.38,98.06Zm-1.08-1.87c1,.21-.77.36-.25.55s1-.31,1.47,0a6.86,6.86,0,0,1-3,.09C172.85,96.53,173.83,96.7,174.3,96.19Zm14.18,7.87c1.25-.47,2.46.3,1.94.77A3.18,3.18,0,0,0,188.48,104.06Zm.3-1-1,.38c-.17-.11-.53-.22-.33-.33C187.89,103.32,188.41,102.57,188.78,103Zm-6.9-4c.52.2.05.37-.25.55-.23-.1-.48,0-.71-.17ZM179,97.09c.38.31.33.6-.28.88C177.86,97.66,178.29,97.12,179,97.09Zm9,5c.58-.36,1.46.1,1.43.35C188.45,102.82,188.74,102.38,188,102.12Zm-5.87-5a2.31,2.31,0,0,0,.9.26c-.92.17-1.07-.16-1.7.36-.24-.51-.89-.11-1.6-.43C180.51,97,181.26,97.39,182.09,97.08Zm5,.91c-1.11-.58-3.32.11-3.81-.48C184.4,97.56,187.37,97.12,187.14,98ZM186,98c-.37.15.24.32-.41.47-.3-.09-.61,0-.89-.26C185.55,98.08,185.24,97.8,186,98Zm6.45-.11c.39.32.86,0,1.25.27a2.92,2.92,0,0,1-1.48.13C192.48,98.13,192.29,98,192.48,97.86Zm15.89,5.66c-.64,0-2.55.35-2-.28C206.9,103.59,208.46,103.18,208.37,103.52Zm17.76,8.75c.83.24-.25.72-.78.47C225.88,112.59,225.44,112.42,226.13,112.27Zm-18.26-9.17a1.59,1.59,0,0,1-1.28-.1c.51-.14.51-.68,1-.55C207.39,102.66,207.83,102.89,207.87,103.1Zm.63-.71c.91.25,0,.81-.61.55C207.92,102.76,207.74,102.56,208.5,102.39Zm-7.1-3.93c.5.47,1.12-.12,1.63.27a9.72,9.72,0,0,1-2.78.18Zm7.17,3.29-.77.31-.52-.26C207.74,101.48,208.15,101.69,208.57,101.75Zm3.12,1.68c1-.39.79.28,1.8.36C212.85,103.91,211.71,103.74,211.69,103.43Zm2.34.45.69.34c-.41.28-1.73.36-1.46,0C213.72,104.38,214,104,214,103.88Zm18,8.36a3.64,3.64,0,0,1-1.25-.27,41.74,41.74,0,0,1,7.67.33c-.8.57-1.43-.32-2.21.11.46.2.91.12.5.41-.81,0-.43-.35-1.22-.59-.84.39-1.56-.24-2.41.19.48.09,1,0,1.43.36-.39.22-.73,0-1.13.3-.65-.14.21-.63-.68-.5-.56.17.53.38-.25.56a2.14,2.14,0,0,1-1.08-.19C231.45,112.71,232.22,112.49,232,112.24Zm-20.2-9.94c.81.47,1.71.11,2.53.38-.51.31.1.6-1,.7-.84-.23-.15-.43-.29-.65a6.55,6.55,0,0,0-1.68.21C210.74,102.71,211.23,102.5,211.81,102.3Zm-6.22-3.51c-.64.25-1.29.57-1.86.28C204.35,99,205,98.52,205.59,98.79Zm13,6.8-.77.3-.52-.25A1.27,1.27,0,0,1,218.61,105.59Zm5.71-1.81a1.34,1.34,0,0,1,.9.1c-1.36.39-2-.64-2.66-.79l-1,.39a9.28,9.28,0,0,0-4.19-.33,1.86,1.86,0,0,1-1.19.78c0-.63-.7.2-1.44-.19a11.61,11.61,0,0,0,2.88-1.15c1.11.73,3.29,0,4.78-.06-.19.16-1.2.29-.79.46.7-.21,1.36-.11,2.06-.35-.23-.09-.73-.06-.52-.26.65.29,2.33-.21,2.35.29-.88-.23-2.31.36-1.55.78.15-.58,2.52-.21,2.56,0C225.88,103.47,223.92,103.19,224.32,103.78Zm.82-.79c0-.18.82-.38,1.33-.38-.36.25.82.09,1.06.35A5.67,5.67,0,0,1,225.14,103Zm-19.57-4a10,10,0,0,1,2.74.14C207.43,99.23,205.8,99.41,205.57,99Zm7.2,3c-.35-.1-.75.17-1.08-.18C212,101.32,213.13,101.72,212.77,101.92Zm3.46.31c-.47.22-1.85.31-1.64-.11C215.12,102.26,215.69,102.09,216.23,102.23ZM210,99c0,.24-1,.4-1.48.13A2.14,2.14,0,0,1,210,99Zm30.45,13.54c-.18.36-1.1,0-1,.54C238.55,112.88,239.89,112.33,240.42,112.58Zm2,0c-.07.36-1,.23-1.54.61l-.5-.25C241.07,112.65,241.81,112.28,242.43,112.54Zm-21.27-10.12c-.45.06-1.85.32-1.64-.11C220.06,102.41,220.64,102.18,221.16,102.42ZM218,99.85a1.28,1.28,0,0,1-1.29.06A1.28,1.28,0,0,1,218,99.85Zm10.62,3.62c.48,0,1,0,1.46,0-.62.26-.67.57-1.52.45C228.87,103.79,228.08,103.62,228.58,103.47Zm3.76.8a2.11,2.11,0,0,0,.89.26l-.38.15c.09.06.18.12,0,.16-1-.38-.29.35-.79.47-.41-.13-.86.07-1.25-.27C231.68,104.79,231.72,104.53,232.34,104.27Zm-2-1.49c.22.14.71.28.5.41-.84-.17-1.74.28-2.55-.22C229.23,102.74,229.72,103.11,230.31,102.78Zm14.11,32c-.23.64-.44.15-.64-.44a2,2,0,0,0,.18-.71C244.17,133.67,244.43,134.33,244.42,134.81Zm6.25-22.33a2.12,2.12,0,0,1,1.68.2c-.76.28-1.19.89-2,.52C251.1,112.89,251.67,112.63,250.67,112.48Zm-14.14-7.88c-.7,0-.84-.29-.68-.5-1.33.36-3.56.14-4.17-.49a9.56,9.56,0,0,0,4.42-.07c-.26.21,0,.43.29.66.1-.35.17-.38,1-.39.4.15.09.27.14.41.42-.43.41-.13,1.12-.14-.5-.34.64-.39,1.12-.14,0,.28-.8.19-1.35.54C237.12,104.36,237.05,104.13,236.53,104.6Zm-13.16-7.21c.93.36,1.7-.4,2.25-.43.74.43-.39.35-.82.78-.33-.33-.73,0-1.12.14C223.23,97.71,223.08,97.55,223.37,97.39Zm12.95,5.76c.78.16,1.58.18,2.36.29a5.15,5.15,0,0,1-1.68.2C237.35,103.53,235.52,103.56,236.32,103.15Zm-6.5-4.33c0,.21-.84.6-1.32.37C228.94,99.11,229.42,98.64,229.82,98.82Zm-.92-1.63c-.46.29-.86.08-1.32.37.46.2.91.12.5.42-.55-.12-2.07,0-2-.45A4.81,4.81,0,0,1,228.9,97.19ZM240.71,104c.39.39,2.27-.18,1.77.27C241.74,104.39,239.86,104.52,240.71,104Zm-3.6-3.05c-.74.1-1.47,0-2.21.11C235,100.88,237.1,100.59,237.11,101Zm-6.45-3.12a.65.65,0,0,0-.4.31c-.42-.16-1.8-.1-1.6-.43C229.3,98,230,97.51,230.66,97.87Zm21.05,6.18c-1.73.21-4.29.17-6.36.23.32.19.88.39.06.56-.09-.68-1-.18-2.41-.52,1-.3,1.81-.29,1.56-.87a6.41,6.41,0,0,0,3.24.5A25,25,0,0,1,251.71,104.05Zm-7.47,42.68c.14-.6-.33-1.27,0-1.84C244.4,145.41,244.62,146.87,244.24,146.73Zm15.48-30.38c-.27.55-.27.9,0,1.1-.51,1-1.05-.41-.76-1.59C259.26,116.64,259.28,116.58,259.72,116.35ZM234.31,98.11A21.35,21.35,0,0,1,231,98l.58-.23C232.48,98,233.42,97.88,234.31,98.11Zm19.94,8.66c-.93,0-3.18.07-3.1-.38C252,106.6,254.46,106.2,254.25,106.77Zm-1.37-1.65c1.1.37,2.63.08,3.74.38a10.73,10.73,0,0,1-4.63-.15A1,1,0,0,0,252.88,105.12ZM235.79,98c-.31.13.38.28.14.4-.47-.17-1,.11-1.44-.19A1.67,1.67,0,0,1,235.79,98Zm3.46.31a2.66,2.66,0,0,1-1.85.13A4.19,4.19,0,0,1,239.25,98.29Zm14.54,5.79a2.57,2.57,0,0,1,2.55.44,2.55,2.55,0,0,0-1,.39l-.39-.17C255.64,104.36,255,104.21,253.79,104.08Zm-16.25-7c1,.12,2-.22,2.91.22-1,.06-.71.59-1.53.62-1-.19.1-.74-.67-.66-.29.18.15.38-.61.55C237.15,97.61,237.43,97.37,237.54,97.13Zm5.25,1.22a2.57,2.57,0,0,1-1.36.47,1.61,1.61,0,0,0-.59-.18,4.25,4.25,0,0,0-.53,0,1.23,1.23,0,0,1-.72-.14l.39-.15a.82.82,0,0,0,.38.13h.26l.35,0A9.8,9.8,0,0,1,242.79,98.35Zm19.62,6c-1.22,0-5.13.69-4.1-.06C259.38,104.67,261.38,104,262.41,104.37Zm4.21,3.24a4.09,4.09,0,0,1-.15-1.68l-.13,0a.87.87,0,0,1,.27-.12A2.82,2.82,0,0,1,266.62,107.61Zm.88-.43a19.25,19.25,0,0,0,0-2.31c-1.59,0-3.17.08-2.56-.46a10.2,10.2,0,0,0,2.8.22A7.81,7.81,0,0,1,267.5,107.18ZM265.35,117a3,3,0,0,1-.13-1.8C265.48,115.08,265.53,116.26,265.35,117Zm1.23-2.28c-.7,1.73-.16,2.85-.46,4.35-.49-.61,0-3.45,0-5.07C266.27,114.63,266.44,113.94,266.58,114.75Zm.32.34c-.46,1.66.58,1.35.19,3.16-.26-1.25-.19-.62-.54-1C266.53,116.51,266.46,114.58,266.9,115.09Zm-.3,8.5a3.68,3.68,0,0,1-.2-2.16C266.69,121.37,267,122.74,266.6,123.59Zm6.29-21.27a5.36,5.36,0,0,1-.13-2.69h-.24l.27,0A8.59,8.59,0,0,1,272.89,102.32Zm.33-.86a5.36,5.36,0,0,1,0-2.27c-.13-.06-.13-.13.07-.21l.11,0C273.25,99.88,273.63,100.38,273.22,101.46Zm-.94,5.19c-.15-.4-.33,1-.49.9a2.94,2.94,0,0,1-.05-2C271.87,106.38,272.42,105,272.28,106.65Zm1.69-1.33c-.12-.07-.38-1.12-.71-.5a5.18,5.18,0,0,1-.27,2.32,11.74,11.74,0,0,1-.34-4.34C273,104.84,274.38,102.08,274,105.32Zm-8.88,27a.91.91,0,0,1-.17-.41,2.5,2.5,0,0,1,0-.61c0-.39.14-.68.29-.49C265.07,131.32,265.43,132,265.09,132.33Zm7.62-21.69a3.1,3.1,0,0,1,0-2.1A3.22,3.22,0,0,1,272.71,110.64Zm-5.8,19.11c0,.59.06,1.43,0,2.17,0,.55-.12,1-.34,1.13.25.68-.21,1.9.36,2l-.34.7c-.29-.51-.08-.92-.38-1,.22-1,.24-1.58-.28-1.87.17-.77.32-.12.49-.31l-.19-.48-.1-.24-.1-.32C266.56,130.47,266.78,131.71,266.91,129.75Zm-.62,7.11c-.5,1-.8-1.29-.45-1.88.13.23.27,0,.4.23C266.27,136.41,265.64,136,266.29,136.86Zm.52,2.08c-.32.87-.59-.08-.88-.65.13-.29-.12-.62.1-.91C266.56,138.1,266.22,138.44,266.81,138.94Zm-1.95,4.38a2.33,2.33,0,0,1-.05-1.66A1.94,1.94,0,0,1,264.86,143.32ZM244.68,184c.16.19.3.62-.11.27.21,0-.09-.31-.3-.45A1.35,1.35,0,0,1,244.68,184Zm21.25-30.68c-.49,1-1-1.85-.36-1.69C265.34,152.43,265.9,152.38,265.93,153.35Zm-21.15,31.39c.14.33.39,1-.23.51.27,0-.39-.51-.62-.82a5.79,5.79,0,0,1,.9.72C244.45,184.68,244.33,184.37,244.78,184.74Zm-.48.78c.18.08.08-.14.35,0C245.16,186.06,244.47,185.9,244.3,185.52Zm28.16-32a2.86,2.86,0,0,1,0-1.83A2.16,2.16,0,0,1,272.46,153.52Zm.41,3.35c.62.54,0,.88,0,1.47.43-.44.71.5,1,.84-.37.86-.68-1.16-1-.3.13.2.26.11.39.59,0,.27-.3,1.4-.51,1.05.3-1-1.12-5,.09-4,0-.74-.31-2.48.21-2.55C273.24,154.4,273.29,156.49,272.87,156.87Zm.78,1.19a8.71,8.71,0,0,1-.18-2.77A5.27,5.27,0,0,1,273.65,158.06Zm-31.76,28.49c-.24-.22-.63.46-.76-.14C241.39,186.47,241.68,185.93,241.89,186.55Zm32-25.16c-.14.23-.28.71-.41.51.26-.89.19-1.28-.21-1.68C273.75,159.69,273.77,160.71,273.9,161.39Zm-1,3.39c-.31.38.16.87-.27,1.25C272.51,165.5,272.63,164.19,272.94,164.78Zm1.8-1.28c-.17.46-.33.61-.49.32.09-.24.26-.46.18-.72s-.15-.38-.07-.56Zm-38.16,23c.21-.13.12-.26.6-.39.39.34.84.14,1.25.27A2.36,2.36,0,0,1,236.58,186.51ZM273,171.39c-.15-.14-.19.79-.26.88.13.24.27,0,.4.23,0,1-.4,1.25-.73.48a23.61,23.61,0,0,1,.22-2.92A10.63,10.63,0,0,1,273,171.39Zm-39.6,14.41.7.34C233.45,186.5,232.48,186,233.36,185.8Zm39.18-9.68a2.29,2.29,0,0,1-.11,1.63,2.3,2.3,0,0,1-.05-1.65C272.43,176.2,272.48,176.3,272.54,176.12Zm-47.39,10.79a5.46,5.46,0,0,1-1.25-.26c.28-.09-.13-.58.59-.39-.39.2,0,.4.53.25a.3.3,0,0,1,0-.48c.35.16.75-.1,1.08.18C225.21,186.43,226.09,186.69,225.15,186.91Zm48.08-4.9c-.18,1.3.1,4.34-.3,4.52a23.27,23.27,0,0,0-.05-2.76c-.17.46-.1,1-.26,1.45-.13-.88-.22-2.2-.53-2.24A2,2,0,0,1,273.23,182Zm-51.74,4.83c.29-.18.11-.38.61-.55C222.51,186.52,222.35,187.09,221.49,186.84Zm51.25,1.45c-.36,1.33-.71,1-1.05.46a4,4,0,0,0,.17-1.1C272.15,188.41,272.47,186.67,272.74,188.29Zm-52.85-1.89a1.27,1.27,0,0,1,1.29-.05A1.27,1.27,0,0,1,219.89,186.4Zm53,5.93a24.52,24.52,0,0,1,.07-4.86c.06,1.76.21,2.18.19,3.46-.07-.21-.16-.17-.24.19A2,2,0,0,1,272.93,192.33Zm-.35,2.23c-.13-.43-.27.15-.4.05a15.69,15.69,0,0,1,0-5.07c.2,1,.43.44.63,1.5C272.64,192.18,272.76,193.45,272.58,194.56Zm-57.33-7.7c.69-.22,1.2-.45,1-.7.53.22,1.11,0,1.64.12-1.09.5.5.32-.07.64C217,186.6,216.08,187,215.25,186.86Zm58.19,10.38c-.14.56-.27.15-.42.64.08.37.16.23.24.48-.2,1.19-.38.3-.56-.7a2.24,2.24,0,0,0,.18-1.1c-.11.23-.21-.29-.31-.8l.25-.76C273.15,196.84,273.05,196.5,273.44,197.24Zm-1.18,3.4a15.11,15.11,0,0,1,0,3C271.83,202.26,271.78,200.35,272.26,200.64Zm.55,7.13a10.57,10.57,0,0,1,.05,2.79,7.52,7.52,0,0,1-.13-2.57c-.08.08-.17.41-.25,0C272.6,207.73,272.71,207.74,272.81,207.77Zm-1.67,5.17a5.88,5.88,0,0,0,1.09.06,4.56,4.56,0,0,1,.13-1.79,9.67,9.67,0,0,1,.12,2C271.8,213.23,271.2,213.13,271.14,212.94Zm.47-.15a1.42,1.42,0,0,0-.84.07c-.89-.17-1.3-.34-1-.49.57.1,1,0,1.55.1C271.05,212.57,271.77,212.68,271.61,212.79Zm-6.92-.17a12.08,12.08,0,0,1,4.64-.1C268,212.86,266.17,212.48,264.69,212.62Zm-.4.87c.28-.55,2.2-.46,3.71-.35A7.76,7.76,0,0,1,264.29,213.49Zm-8-1.14c-.34-.14-.23-.27-1-.41a6.94,6.94,0,0,1,3.74,0C257.59,211.92,256.3,212.13,256.34,212.35Zm-16.85,1c.46-.21-.56,0-.69-.33.35-.25,1.56,0,1.25.26C239.68,213.12,239.83,213.43,239.49,213.32Zm-75.59-.48a4.23,4.23,0,0,1-1.43-.35,6.12,6.12,0,0,1,2.25-.44l.52.26C164.19,212.47,164.36,212.4,163.9,212.84Zm-6-.53c.76.41,1.88-.25,1.6.44C159.08,212.55,157.69,212.74,157.9,212.31ZM88.09,187.7c1.75-.54-1.78-.19.11-1,.59.36.41.38,1.24.43A1.11,1.11,0,0,1,88.09,187.7Zm1.94-.92c.24.08.46.25.72.17s-.06-.74.8-.62c.13.19-.35.36.12.56-1,.06-.93.74-1.92.77C89.57,187.36,89.21,187.06,90,186.78Zm49.83,25.95a3.6,3.6,0,0,1-1.66.05c0-.28.8-.18,1.34-.54C140.16,212.42,139.51,212.56,139.86,212.73Zm-54.52-25c-.5-.27-.15-.53-.28-.81.47.18,1-.31,1.47,0C86,187.35,85.87,187.29,85.34,187.72ZM136,212.41c.88.17.7-.37,1.48-.13C137.68,212.47,135.75,212.94,136,212.41ZM84.8,187.63a1.13,1.13,0,0,1-1.1,0,1,1,0,0,1,.77-.31C84.27,187.41,84.53,187.52,84.8,187.63Zm-2.71,26.13c.64.27,1.37-.24,2,0C83.5,214.14,82,214.17,82.09,213.76Zm-3,.1a10.47,10.47,0,0,1,2.74.14A3.52,3.52,0,0,1,79.14,213.86Zm-1.33.37.77-.3.52.25C78.64,214.5,78.23,214.29,77.81,214.23ZM44.45,176.34c.28-.56.54-.12.8.46.2.88.15,2.17.49,3.54-.11.18-.23.53-.33.34A25.12,25.12,0,0,1,44.45,176.34Zm0-5c.17-.3.33-.46.49-.31a33,33,0,0,1,.24,3.69C44.91,173.64,44.78,172.52,44.48,171.39Zm-14.7,43.9a11.71,11.71,0,0,1,4.31-.44A20.64,20.64,0,0,1,29.78,215.29Zm14-49.48c.41,1.61.55,3,1.21,3.8l-.34.7C44.51,169.2,43.46,167.85,43.79,165.81ZM27.45,193.24a8,8,0,0,1-.22-1.69c.4-1.78.74,1,1.14-1.43.06,1.23.42,2.39,0,3.65C28.45,191.61,27.9,191.05,27.45,193.24Zm16.79-41c.23-.52.43.11.64.07-.12.41.07.86-.26,1.26C44.43,153.15,44.54,152.73,44.24,152.27Zm-6.67,6.79c.11-.51-.46-.91-.62-1.17.18-.77.33-.12.49-.31a.69.69,0,0,1,.09-.54c.07.92,0,1.7.54,1.34C38.07,158.83,37.78,159.12,37.57,159.06Zm-7.79,6.66c-.25.4.23.89-.11,1.28C29.32,166.63,29.47,165.41,29.78,165.72Zm.1-5.13a5.22,5.22,0,0,1,.19,2.78C30.05,162.45,29.6,161.48,29.88,160.59Zm.24-3.64a1.56,1.56,0,0,1,0,1.47A2,2,0,0,1,30.12,157Zm-1.61.19c.27-.46.27-.65,0-.74.28-.8.59.86.3,1.14A.65.65,0,0,0,28.51,157.14ZM32,124.66c.29,0,.47,1,.45,1.52A1.52,1.52,0,0,1,32,124.66Z"/><path class="cls-4" d="M209.29,96.85c-.23.15.48.08.16.25,2.1-.74,4.05-.1,6.11-.44a24.21,24.21,0,0,0-5.11-.27c-.2.11.15.22.33.33A7.63,7.63,0,0,1,209.29,96.85Z"/><path class="cls-4" d="M82.79,123.4c.58.22,1.24-.14,1.85-.12A3.19,3.19,0,0,0,82.79,123.4Z"/><path class="cls-4" d="M116,122.17c-.47.13-.39.26-.59.39.3.1.62-.12.94-.22a.49.49,0,0,0,.33.33C117.13,122.37,116.44,122.35,116,122.17Z"/><path class="cls-4" d="M89.62,109.77c-.76.08,1.15.08,1,.51.34-.18.17-.38.25-.56C90.13,109.45,90.4,110,89.62,109.77Z"/><path class="cls-4" d="M101.18,114.85q-.68.23-.06.48c0-.21.47-.28.95-.22C102.47,114.91,101.38,115,101.18,114.85Z"/><path class="cls-4" d="M99.19,112.87c0-.13.26-.26-.14-.4-.5.15-.71.31-.78.47.35.15.75-.2,1.1,0C99.55,112.86,99.3,112.83,99.19,112.87Z"/><path class="cls-4" d="M124.5,124.77c.62.38.48-.19.77-.3.53-.18,0,.25.69.34a4.35,4.35,0,0,1,3-.1c.2-.16.23-.32.42-.48a9.35,9.35,0,0,1-3.85,0C125,124.59,124.53,124.5,124.5,124.77Z"/><path class="cls-4" d="M97.57,110.91a31.56,31.56,0,0,0,5.92-.36c-.26-.16-.78-.09-.53-.25-.79-.17-.48.11-1.31.21.19-.4-2.75-.14-2-.45C99.25,109.75,98,110.52,97.57,110.91Z"/><path class="cls-4" d="M133.91,127.63a9.31,9.31,0,0,0,3.84.16Z"/><path class="cls-4" d="M74.33,97c0,.29-.63.12-1.16.46a2.5,2.5,0,0,0,1.68-.21C75.06,97.06,74.55,97.13,74.33,97Z"/><path class="cls-4" d="M102.34,111a5.52,5.52,0,0,0,2-.2C103.75,110.43,103,110.94,102.34,111Z"/><path class="cls-4" d="M132,123.32c-.52.12.06.27-.22.4a3.32,3.32,0,0,0,1.29,0C133.42,123.43,132.23,123.76,132,123.32Z"/><path class="cls-4" d="M92.72,101.62c.19-.08-.06-.16-.15-.25.39-.21.73,0,1.13-.29a3.09,3.09,0,0,0-2.21.11C92.17,101.38,92.45,101.18,92.72,101.62Z"/><path class="cls-4" d="M112.72,106.72c1-.2.8.19,1.82.2a4.56,4.56,0,0,1,.8-.63C114.51,106.49,113,106.42,112.72,106.72Z"/><path class="cls-4" d="M152.57,125c-.3-.3,1-.12.79-.47-.41-.24-.89.23-1.27-.11.13.34-.88.48-.11,1a2.91,2.91,0,0,1,1.48-.13C153.86,125,152.78,125.09,152.57,125Z"/><path class="cls-4" d="M155.83,125.36c.83.28,1.75-.31,2.55.22.62-.3-.49-.23-.14-.41A19.87,19.87,0,0,0,155.83,125.36Z"/><path class="cls-4" d="M159.72,125c-.33-.14-.13-.27-.5-.41a7.4,7.4,0,0,1-3.11-.15c.12.68,1.94.18,2.67.78a1.66,1.66,0,0,1,1.81.2,9.74,9.74,0,0,0,2.08-.52c-.36-.08-.72-.1-1.08-.18-.52.12.06.27-.23.4a2.68,2.68,0,0,0-.56.07c-.19-.17.46-.32-.31-.5C160,124.75,159.8,124.83,159.72,125Z"/><path class="cls-4" d="M111.83,93.24c-.19.11.07.13.17.09.27.11.53.22.33.33.3.09.63-.12,1-.22A12,12,0,0,0,111.83,93.24Z"/><path class="cls-4" d="M129.36,95.79c-.33.2,2.33.67,3.27.23-.26-.07-1.45.2-1.08-.18C130.85,95.63,130,96.23,129.36,95.79Z"/><path class="cls-4" d="M138.56,97.2c.75.16,1.05.76,2.17.37-.15-.64-2-.14-1.74-.85C138.15,96.87,139.4,97.05,138.56,97.2Z"/><path class="cls-4" d="M173.33,109.94c-.42.32.68.14.89.26.36-.11.2-.34.57-.23.2,0,.12-.1,0-.16l-.35-.17c.19.13-1,.58-.57.23C173.54,109.77,173.7,110.08,173.33,109.94Z"/><path class="cls-4" d="M159.19,98.36c0,.3,1.55.24,2.16.37-.26.47,1.2.84,1.72,1,0-.45-.47-.92-.76-1.38-.22.81-1.15-.15-2.37-.13C159.85,98.42,159.65,98.49,159.19,98.36Z"/><path class="cls-4" d="M165.06,100c.22.33,2.05.22,2.9.38.58-.28-1.27-.16-.68-.5A4.26,4.26,0,0,1,165.06,100Z"/><path class="cls-4" d="M163.37,98.69c-.76.19,0,.29.35.17.31.14.31.28.14.41.29.08.61,0,.91.1-.33-.15-.53-.69.57-.23.21-.13-.27-.28-.5-.42A1.87,1.87,0,0,1,163.37,98.69Z"/><path class="cls-4" d="M172.67,99.29c-.3-.08-.61,0-.91-.1-.72.18.11.38-.61.55C171.75,99.73,171.78,99.53,172.67,99.29Z"/><path class="cls-4" d="M181.12,95.93c-.09.29-.26.09-.77.3.68.21-.45.37.49.58l.58-.23c-.33-.22-.63-.46.4-.31C182.27,96.05,181.25,96.22,181.12,95.93Z"/><path class="cls-4" d="M194.05,101.84c-.46-.1-.11.21.18.09.1.16-.09.32-.42.47.59.11,1.42-.44.8-.63A.7.7,0,0,1,194.05,101.84Z"/><path class="cls-4" d="M214.2,112.26c.24.08.29,0,.19-.07.58-.26,1.06.43,1.66,0-.57-.42-1.21-.13-1.81-.2C214.07,112,214.45,112.16,214.2,112.26Z"/><path class="cls-4" d="M200.78,95.78a3.39,3.39,0,0,0-2.18-.2c.81.46,1.68.34,2.49.69.45-.56,1.68-.22,2.62-.42C203.53,95.87,201,95.33,200.78,95.78Z"/><path class="cls-4" d="M203.1,96.4c1,.08,2-.3,2.93.06.27-.9,2.87.26,4.24-.15,0-.14-.36-.28-.14-.41-.8.06-1.64.45-2.37-.13a12.75,12.75,0,0,1-3.49,0c-.2.13.28.27.51.41C204.21,96.33,203.7,96,203.1,96.4Z"/><path class="cls-4" d="M201.29,94.5c.18.86,4.36.88,5.27.52C204.86,94.93,202.33,95.26,201.29,94.5Z"/><path class="cls-4" d="M214.93,95.68a20.09,20.09,0,0,0,2.18.21C217.14,95.56,215.56,95.61,214.93,95.68Z"/><path class="cls-4" d="M224.79,96.21a24.12,24.12,0,0,0,5.65.37c-.72-.47-1.54,0-1.78-.53-.2.58-1.48-.12-2.23.28-.67-.24.58-.56-.49-.57C226.23,96.19,225.71,96.27,224.79,96.21Z"/><path class="cls-4" d="M224.51,95.4c0,.44,1.57.11,2.18.21.42-.29-.69-.11-.87-.42C225.15,95.51,225.32,95.6,224.51,95.4Z"/><path class="cls-4" d="M230.81,96.58a15.27,15.27,0,0,0,3.82.33C234.13,95.9,232,96.44,230.81,96.58Z"/><path class="cls-4" d="M258.11,97.65c.9.08,1.9,0,3.57,0l-.76-.25C259.76,97.73,259.18,97.37,258.11,97.65Z"/><path class="cls-4" d="M275.73,98.64l-.44-1.54-.12,0h.09c-.1,1.65.51,1.23.21,3.35C275.67,101,275.6,99.12,275.73,98.64Z"/><path class="cls-4" d="M275.18,118c-.77.72.38,1.87-.45,3.63.11.08.22.17.32.62C275.43,120.77,275.11,119.39,275.18,118Z"/><path class="cls-4" d="M275.05,141.51c.11-.47-.21-.12-.08.17-.2.3-.38-.17-.56-.25-.05.61.32,1.27,0,1.83.78.83.25,1.77.34,2.8.14.84.33-.42.48.42-.2-1.06.16-2.07-.18-3.14.14-.34.27-.14.41-.51C275.17,142.82,275,142,275.05,141.51Z"/><path class="cls-4" d="M274.17,171.34c-.38.93.41,2-.06,2.93.13.2.27-.28.41-.51C274.05,172.91,274.65,172.18,274.17,171.34Z"/><path class="cls-4" d="M274.33,197.53c-.31-.18-.38,3.76-.14,4A33.12,33.12,0,0,1,274.33,197.53Z"/><path class="cls-4" d="M259.28,213.11c-.36.2-.16.42-.34.63a6.9,6.9,0,0,0,2.38-.13c-.73-.28-1.22,0-1.83,0C258.86,213.42,261.35,213.44,259.28,213.11Z"/><path class="cls-4" d="M181.22,213.94c.15-.44-1.32-.14-1.79-.36-.2,0-.12.1,0,.16l.35.16C180.27,213.67,180.73,214,181.22,213.94Z"/><path class="cls-4" d="M118.75,184.41c-1-.08-2.08,0-3.1-.15-.48.47-1.82.22-2.78.18-.12.08,0,.16-.21.24.19.06.09.11,0,.16C114.7,184.54,116.7,184.75,118.75,184.41Z"/><path class="cls-4" d="M74.08,216.49c-1,.19.18.43-.81.63.18,0,.37,0,.54.09l.39-.15C73.25,216.85,75,216.7,74.08,216.49Z"/><path class="cls-4" d="M65.87,215.91c-1-.48.06.62-1,.38-.37.29.79.31,1.09,0C65.6,216.17,65.51,216,65.87,215.91Z"/><text class="cls-5" transform="translate(66.53 181.94)">Eman</text><text class="cls-6" transform="translate(109.46 206.41)">Ibrahem</text></svg>